<svg xmlns="http://www.w3.org/2000/svg" width="686.155" height="434.453" viewBox="0 0 686.155 434.453"><defs><style>.a{fill:#d0cde1;}.b{fill:#3f3d56;}.c{fill:#ff6584;}.d{fill:#2699fb;}.e{fill:#f1f1f1;}.f{fill:#fbbebe;}.g{fill:#2f2e41;}.h{opacity:0.1;}.i{fill:#a0616a;}</style></defs><ellipse class="a" cx="343.077" cy="19.956" rx="343.077" ry="19.956" transform="translate(0 394.542)"/><rect class="b" width="399.046" height="150.854" transform="translate(143.554)"/><path class="c" d="M405.256,210.156H375.5a89.465,89.465,0,0,1,0-32.872h29.751A54.99,54.99,0,0,0,405.256,210.156Z" transform="translate(-204.35 -153.996)"/><path class="d" d="M495.481,197.208h29.751a89.465,89.465,0,0,0,0-32.872H495.481a54.989,54.989,0,0,1,0,32.872Z" transform="translate(-232.611 -150.256)"/><path class="e" d="M738.368,230.967q23.581.23,47.115-1.349l-1.042-1.267c-2.568,6.03-2.5,12.386-2.157,18.765.085,1.6.626,3.753.276,5.336-.44,1.991-2.369,1.515-4.286,1.572q-6.336.19-12.676.273-5.987.078-11.975.062-2.818-.008-5.635-.037c-2.206-.023-4.713.571-5.283-1.8-.365-1.517,0-3.511,0-5.071l0-5.7.008-11.41a1.087,1.087,0,0,0-2.161,0l-.01,13.945,0,6.339c0,1.259-.283,2.78.224,3.976,1.167,2.75,6.209,1.718,8.627,1.739q7.4.063,14.793-.021t14.789-.311c2.123-.065,5.061.382,5.705-2.045.451-1.7-.075-3.92-.171-5.656-.11-1.981-.228-3.963-.257-5.947a32.512,32.512,0,0,1,2.269-13.476.948.948,0,0,0-.185-.871,1.117,1.117,0,0,0-.857-.4q-23.521,1.579-47.115,1.349a1,1,0,1,0,0,2Z" transform="translate(-288.865 -168.535)"/><path class="e" d="M744.3,233.049a165.425,165.425,0,0,1,19.638,7.859c5.695,2.727,13.15,5.707,17.07,10.581.821,1.022,2.7.024,1.866-1.011-4-4.978-10.892-7.907-16.68-10.736a169.27,169.27,0,0,0-21.319-8.624,1.008,1.008,0,1,0-.575,1.931Z" transform="translate(-290.316 -169.529)"/><path class="e" d="M787.04,228.807c-7.141,2.83-13.19,8.282-19.572,12.321q-10.361,6.559-21.339,12.208c-1.214.628-.126,2.359,1.091,1.729q10.954-5.669,21.339-12.208c6.38-4.039,12.433-9.492,19.572-12.321C789.405,230.031,788.306,228.306,787.04,228.807Z" transform="translate(-290.79 -168.853)"/><path class="e" d="M556.176,236.7q21.85.308,43.7-.161a1,1,0,1,0,0-2q-21.846.469-43.7.161a1,1,0,1,0,0,2Z" transform="translate(-246.486 -170.535)"/><path class="e" d="M557.772,249.464q22.462.332,44.922-.179a1,1,0,1,0,0-2q-22.458.511-44.922.179a1,1,0,1,0,0,2Z" transform="translate(-246.858 -174.216)"/><path class="e" d="M555.636,262.578l42.473-1.828a1,1,0,1,0,0-2l-42.473,1.828A1,1,0,1,0,555.636,262.578Z" transform="translate(-246.361 -177.527)"/><path class="e" d="M641.848,249.933h40.427a1,1,0,1,0,0-2H641.848a1,1,0,1,0,0,2Z" transform="translate(-266.414 -174.403)"/><path class="e" d="M691.578,233.962l6.316,5.343c.722.611,2.709,1.872,3.158,2.671.928,1.652-.069,1.275-1.659,1.847a36.1,36.1,0,0,0-10.634,6.119c-1.045.854.488,2.265,1.528,1.416a33.508,33.508,0,0,1,9.681-5.6c1.274-.467,3.692-.741,4.3-2.147.741-1.721-1.619-2.992-2.737-3.937l-8.422-7.124c-1.025-.867-2.558.545-1.528,1.416Z" transform="translate(-277.487 -169.881)"/><path class="d" d="M564.688,331.218h29.751a89.468,89.468,0,0,0,0-32.872H564.688a54.989,54.989,0,0,1,0,32.872Z" transform="translate(-248.709 -188.966)"/><path class="d" d="M403.244,296.489h29.751a89.463,89.463,0,0,0,0-32.872H403.244A54.989,54.989,0,0,1,403.244,296.489Z" transform="translate(-211.156 -178.934)"/><path class="d" d="M648.226,195.117h29.751a89.465,89.465,0,0,0,0-32.872H648.226a54.99,54.99,0,0,1,0,32.872Z" transform="translate(-268.14 -149.652)"/><path class="f" d="M876.435,534.848l3.878,14.375-17.062,4.312L861.7,538.442Z" transform="translate(-200.435 -154.497)"/><path class="f" d="M793.936,558.947V572.6l-17.063,2.875-3.1-7.187,6.2-12.219Z" transform="translate(-179.983 -160.628)"/><path class="g" d="M976.528,495.443,974.2,514.849l1.551,37.374a2.377,2.377,0,0,1,1.66.618,2.033,2.033,0,0,1,.667,1.538c0,2.156-2.327,1.438,0,2.875a41.048,41.048,0,0,0,3.878,2.156l24.819,69.717s-6.2,7.187-17.839,5.031l-2.327-7.187s-4.654-4.312-4.654-6.468,1.551-2.875,0-5.031-24.819-46-24.819-46L946.28,551.5l-3.1,24.437s6.2,30.905,4.654,45.28-4.654,29.468-4.654,29.468l-18.614-2.875a11.425,11.425,0,0,0-2.327-6.468c-2.327-2.875-5.429-2.156-2.327-4.312s6.98,0,3.878-2.875-3.1-5.75-3.1-5.75v-2.156l-4.654-55.342L907.5,498.318Z" transform="translate(-328.449 -245.9)"/><ellipse class="f" cx="20.941" cy="19.406" rx="20.941" ry="19.406" transform="translate(574.398 79.923)"/><path class="f" d="M792.255,140.18l8.531,19.406-20.165,13.655-12.41-20.124Z" transform="translate(-178.69 -40.493)"/><path class="a" d="M942.64,303.976l7.756-3.594,4.654,10.062S985.3,319.07,982.97,358.6s-7.756,54.623-7.756,54.623,13.185,25.874,5.429,28.749-73.681,13.656-75.232,3.594,5.429-69,5.429-69-2.327-42.4,17.063-51.03l-3.878-7.906Z" transform="translate(-327.911 -189.555)"/><path class="f" d="M895.118,501.507s-17.839,17.25-7.756,21.562,16.287-19.406,16.287-19.406Z" transform="translate(-323.046 -247.652)"/><path class="g" d="M933.707,713.546l8.531-2.875s9.307,19.406,1.551,19.406H923.624s-11.634-3.594-17.838-3.594-17.839-10.781-9.307-15.812,19.39-3.594,19.39-3.594l3.1-6.469,3.878,10.062S927.5,717.858,933.707,713.546Z" transform="translate(-325.183 -305.165)"/><path class="g" d="M1021.526,694.815s4.857-2.84,7.47-1.779,4.164,12.56,4.164,12.56,7.756,8.625-9.307,10.062-20.941-1.437-22.492-5.75,1.551-8.625,1.551-8.625l4.653-1.437s5.429-3.594,3.878-5.031,0-4.312,0-4.312S1016.876,700.565,1021.526,694.815Z" transform="translate(-350.18 -302.245)"/><path class="g" d="M929.188,272.035a8.936,8.936,0,0,0-.455-1.847c-1.126-2.188-5.517-1.549-6.3-3.863-.153-.453-.121-.945-.271-1.4-.383-1.157-1.851-1.73-3.155-1.675a18.138,18.138,0,0,0-3.781.9c-3.068.807-6.332.5-9.5.184a10.164,10.164,0,0,1-4.058-.979,2.955,2.955,0,0,1-1.629-3.3c.419-1.191,1.826-1.845,2.458-2.953,1-1.758-.223-4.029.591-5.869,1.307-2.952,6.252-2.36,8.765-4.542.61-.53,1.049-1.207,1.634-1.76,1.734-1.643,4.473-1.961,6.941-1.734s4.893.9,7.372.858c2.351-.039,4.816-.7,6.983.145a9.838,9.838,0,0,1,3.28,2.5l5.557,5.648a6.334,6.334,0,0,1,1.718,2.4c.334,1.082.027,2.244.169,3.362.325,2.55,2.9,4.475,3.249,7.022a8.471,8.471,0,0,1-.123,2.365l-.778,5.319a3.737,3.737,0,0,1-.439,1.49c-.226.358-.569.641-.823.983-.72.965-.654,2.24-1.012,3.364s-1.64,2.238-2.761,1.7c-.732-.354-1.216-3.278-2.1-4.038-1.238-1.058-1.885-.927-3.413-.909C934.237,275.432,930.167,275.676,929.188,272.035Z" transform="translate(-326.686 -173.017)"/><path class="a" d="M931.355,342.82s23.268,8.625,16.287,28.03-25.594,79.06-25.594,79.06l-10.858,5.031-3.1,7.906-14.736-5.031,2.327-10.781s.776-.719.776-3.594-3.1-3.594.776-3.594a3.615,3.615,0,0,0,3.878-3.594l13.96-80.5S915.068,342.1,931.355,342.82Z" transform="translate(-325.158 -201.805)"/><path class="h" d="M802.338,243.269l-24.043,76.185L768.212,328.8l5.817-9.7Z" transform="translate(-178.69 -70.271)"/><path class="g" d="M60.867,163.067l24.373,3.765,8.124-35.762-19.634-7.529Z" transform="translate(-14.158 -35.686)"/><ellipse class="i" cx="20.988" cy="19.45" rx="20.988" ry="19.45" transform="translate(59.235 81.267)"/><path class="i" d="M240.088,301.6s2.031,23.841-13.541,25.724,13.541,44.546,20.988,43.918,20.988-46.428,20.988-46.428-17.6-11.293-11.51-21.332Z" transform="translate(-169.006 -189.907)"/><path class="i" d="M211.594,422.777s2.708,18.195,10.833,18.195-5.416-20.7-5.416-20.7Z" transform="translate(-166.578 -224.185)"/><path class="i" d="M364.759,449.382s20.311,15.685,17.6,20.7-20.311-5.647-21.665-18.195Z" transform="translate(-201.26 -232.595)"/><path class="i" d="M198.092,534.079l-12.864,44.546-14.218,53.957h13.541s4.739-16.94,13.541-25.724c0,0,8.8-13.8,8.8-23.214l20.988-45.8Z" transform="translate(-157.138 -257.061)"/><path class="i" d="M278.646,534.295l4.062,42.036s-.677,30.116,0,37.017a128.24,128.24,0,0,1,0,16.94h12.187s11.51-37.017,8.124-57.094l4.739-47.056Z" transform="translate(-182.174 -254.767)"/><path class="g" d="M242.944,361.308s-18.241-13.4-13.521-32.108c0,0-18.3.738-25.747,7.639s2.031,30.116,2.031,30.116,16.249,25.1,13.541,36.39-31.821,70.9-22.342,74.662,67.027,16.94,96.14-5.019c0,0,7.447-62.113-22.342-82.191V375.111s5.416-4.392,2.708-15.685c0,0,11.51-19.45,4.739-23.214s-22.323-9.281-22.323-9.281S257.162,355.034,242.944,361.308Z" transform="translate(-162.722 -197.223)"/><path class="g" d="M199.036,340.849s-8.8-1.255-17.6,10.666-31.821,30.743-20.988,40.154,39.946,15.686,39.946,15.686l6.77-11.293-29.113-13.176,24.373-16.94Z" transform="translate(-154.019 -201.233)"/><path class="g" d="M297.091,340.864s9.479,0,13.541,10.666,27.759,47.056,27.759,47.056l13.541,19.45-9.479,10.039-26.4-27.606L291,362.2Z" transform="translate(-185.048 -201.248)"/><path class="g" d="M184.135,670.828H165.178l-4.062,30.743S150.283,717.884,166.532,716s10.833-18.822,10.833-18.822l4.062-6.274,1.354,13.176,1.354-.627v-14.43S191.583,682.749,184.135,670.828Z" transform="translate(-154.014 -296.562)"/><path class="g" d="M297.832,670.318l-17.6-1.254L276.843,704.2S274.812,717.374,287,715.492s8.124-12.548,8.124-12.548v-19.45Z" transform="translate(-181.726 -296.053)"/><path class="g" d="M231.259,256.419S221.4,259.465,220.9,271.5a19.851,19.851,0,0,0,.685,5.714c.555,2.181.912,6.874-3.392,13.008A126.839,126.839,0,0,0,210.3,302.79l-.031.057L221.1,304.1l2.3-16.64a78.241,78.241,0,0,1,7.1-23.36l.075-.155s4.739,8.156,14.218,8.156l-3.385-3.137s14.895,5.647,20.311,5.647c0,0,4.062,2.51,0,6.274s-12.187,12.548-7.447,19.45.677,8.784.677,8.784l7.447-3.764,3.385-1.882v2.51l17.6-1.882s4.739-.627-5.416-11.293c0,0-2.682-4.142-1.508-7.714a16.763,16.763,0,0,0,.739-8.427C274.931,264.905,266,241.521,231.259,256.419Z" transform="translate(-166.27 -175.465)"/><path class="b" d="M738.084,715.192c-.092-.139-2.265-3.5-3.018-10.484-.691-6.406-.247-17.2,5.8-32.264,11.447-28.532-2.638-51.554-2.782-51.783l.695-.374a54.447,54.447,0,0,1,5.818,15.274,62.033,62.033,0,0,1-2.978,37.142c-11.428,28.484-2.932,41.968-2.845,42.1Z" transform="translate(-288.283 -281.963)"/><ellipse class="b" cx="5.221" cy="4.838" rx="5.221" ry="4.838" transform="translate(440.105 327.348)"/><ellipse class="b" cx="5.221" cy="4.838" rx="5.221" ry="4.838" transform="translate(456.57 345.21)"/><ellipse class="d" cx="5.221" cy="4.838" rx="5.221" ry="4.838" transform="translate(445.325 357.119)"/><ellipse class="d" cx="5.221" cy="4.838" rx="5.221" ry="4.838" transform="translate(458.979 367.167)"/><ellipse class="b" cx="5.221" cy="4.838" rx="5.221" ry="4.838" transform="translate(441.309 382.797)"/><path class="b" d="M742.93,745.527s-5.221-11.909,10.441-20.84Z" transform="translate(-289.975 -312.12)"/><path class="b" d="M728.522,748.589s-2.376-12.664-20.765-12.555Z" transform="translate(-281.988 -315.397)"/><path class="a" d="M463.886,665.74c-.092-.14-2.265-3.5-3.018-10.484-.691-6.406-.247-17.2,5.8-32.264,11.447-28.532-2.638-51.554-2.782-51.783l.695-.374a54.447,54.447,0,0,1,5.818,15.274,62.034,62.034,0,0,1-2.978,37.142c-11.428,28.484-2.932,41.968-2.845,42.1Z" transform="translate(-224.503 -267.678)"/><ellipse class="b" cx="5.221" cy="4.838" rx="5.221" ry="4.838" transform="translate(229.686 292.181)"/><ellipse class="b" cx="5.221" cy="4.838" rx="5.221" ry="4.838" transform="translate(246.151 310.043)"/><ellipse class="a" cx="5.221" cy="4.838" rx="5.221" ry="4.838" transform="translate(234.907 321.952)"/><ellipse class="a" cx="5.221" cy="4.838" rx="5.221" ry="4.838" transform="translate(248.56 331.999)"/><ellipse class="b" cx="5.221" cy="4.838" rx="5.221" ry="4.838" transform="translate(230.891 347.629)"/><path class="a" d="M468.732,696.075s-5.221-11.908,10.441-20.84Z" transform="translate(-226.195 -297.835)"/><path class="a" d="M454.325,699.137s-2.376-12.664-20.765-12.555Z" transform="translate(-218.208 -301.113)"/></svg>