<svg xmlns="http://www.w3.org/2000/svg" width="720" height="433.448" viewBox="0 0 720 433.448"><defs><style>.a{fill:#3f3d56;}.b{fill:#2f2e41;}.c{fill:#fff;}.d{fill:#2699fb;}.e{fill:#ffb9b9;}.f{fill:#575a89;}.g{fill:#f2f2f2;}</style></defs><g transform="translate(0)"><rect class="a" width="15.612" height="18.366" transform="translate(59.6 122.078)"/><rect class="a" width="15.612" height="18.366" transform="translate(405.475 379.461)"/><rect class="a" width="14.128" height="20.295" transform="translate(657.56 190.458) rotate(90)"/><ellipse class="b" cx="61.666" cy="55.804" rx="61.666" ry="55.804" transform="translate(543.638 283.932)"/><path class="b" d="M877.972,622.834l18.434-3.02-5.979-34.833L871.993,588Z" transform="translate(-248.85 -206.679)"/><path class="b" d="M2.4,1.008l18.678.312L21.641,31.8,2.964,31.484Z" transform="translate(613.232 414.791) rotate(169.739)"/><path class="b" d="M16.652,3.881c8.28.4,15.115,3.208,15.266,6.262s-6.438,5.2-14.717,4.8S2.086,11.734,1.934,8.68,8.372,3.477,16.652,3.881Z" transform="matrix(0.763, -0.646, 0.646, 0.763, 579.257, 423.256)"/><path class="b" d="M16.652,3.881c8.28.4,15.115,3.208,15.266,6.262s-6.438,5.2-14.717,4.8S2.086,11.734,1.934,8.68,8.372,3.477,16.652,3.881Z" transform="matrix(0.763, -0.646, 0.646, 0.763, 615.358, 422.287)"/><ellipse class="c" cx="21.076" cy="19.072" rx="21.076" ry="19.072" transform="translate(579.912 307.014)"/><ellipse class="a" cx="7.025" cy="6.357" rx="7.025" ry="6.357" transform="translate(585.3 312.893)"/><path class="d" d="M974.884,527.554c.927-20.66-18.749-38.158-43.947-39.085s-46.378,15.071-47.306,35.73,16.589,25.354,41.788,26.28S973.955,548.214,974.884,527.554Z" transform="translate(-320.933 -248.527)"/><path class="b" d="M10.831,1.266c4.863.111,9.091,13.939,9.444,30.887s-3.3,30.6-8.167,30.486S3.017,48.7,2.664,31.752,5.968,1.155,10.831,1.266Z" transform="matrix(0.223, -0.975, 0.975, 0.223, 514.655, 333.611)"/><path class="b" d="M10.831,1.266c4.863.111,9.091,13.939,9.444,30.887s-3.3,30.6-8.167,30.486S3.017,48.7,2.664,31.752,5.968,1.155,10.831,1.266Z" transform="matrix(0.223, -0.975, 0.975, 0.223, 635.704, 351.825)"/><path class="c" d="M955.844,673.19c1.382,6.91-3.687,13.526-11.323,14.777s-14.946-3.337-16.329-10.247,4.521-9.355,12.157-10.606S954.462,666.28,955.844,673.19Z" transform="translate(-333.603 -311.462)"/><path class="e" d="M397.67,580.741l-2.144,25.221,20.724,1.94-5-30.394Z" transform="translate(-112.876 -204.039)"/><path class="b" d="M371.591,344.045h0c17.665,4.926,27.088,23.3,21.046,41.042l-7.675,22.54-7.66-2.136-1.591-9.588-1.735,8.66-49.237-13.731-1.446-8.716-1.577,7.873-5.544-1.546,6.027-17.7C329.149,350.33,351.263,338.376,371.591,344.045Z" transform="translate(-159.001 -197.016)"/><path class="e" d="M349.936,449.348a12.512,12.512,0,0,0-9.1,2.126A10.235,10.235,0,0,0,336.464,459c-.308,3.908,1.182,8.483,7.877,11.871,14.3,7.237,45.3,23.013,45.3,23.013L448.8,504.168s29.895,21.587,33.64,9.309S454.077,493.7,454.077,493.7l-54.349-12.613L365.1,458.421S358.75,450.755,349.936,449.348Z" transform="translate(-164.781 -234.668)"/><path class="e" d="M232.636,407.609l5.946,15.164,35.677-7.827-9.19-11.251Z" transform="translate(-66.39 -142.629)"/><path class="e" d="M88.332,619.824,61.3,617.378l18.92-16.632,13.514,8.316Z" transform="translate(-17.495 -212.249)"/><ellipse class="e" cx="22.198" cy="20.088" rx="22.198" ry="20.088" transform="translate(184.144 157.603)"/><path class="e" d="M346.37,397.1s-12.433,13.208-18.92,15.165-22.7,20.545-14.6,32.775,37.839-2.935,37.839-2.935l-1.081-12.229s12.433-19.567,15.136-21.035S346.37,397.1,346.37,397.1Z" transform="translate(-157.421 -216.258)"/><path class="f" d="M344.071,429.6c-8.265-11.261-27.436-9.246-32.192,3.569q-.127.342-.243.7c-4.324,13.208,2.162,35.71,2.162,35.71l9.73,26.416s25.406-10.762,43.785,7.338l-2.7-18.589s7.568-15.654-2.162-26.9C356.256,450.672,350.5,438.36,344.071,429.6Z" transform="translate(-157.283 -225.138)"/><path class="b" d="M155.18,725.76,154.1,733.1s-35.677-6.359-43.245-.489-7.568,9.784-13.514,5.87c-2.527-1.663-.368-5.712,2.951-9.818a53.743,53.743,0,0,1,20.128-15.124c8.921-3.953,21.247-9.7,21.247-11.257,0-2.446,9.73-9.784,13.514-5.87s10.811,14.675,10.811,14.675Z" transform="translate(-96.235 -321.609)"/><path class="b" d="M487.827,720.968s-7.924,25.422-5.042,26.726,8.644,5.215,17.288,5.215c5.107,0,12.73,2.5,18.112,4.552a47.759,47.759,0,0,0,19.9,3.1c4.537-.283,8.394-1.245,8.088-3.739-.72-5.867-14.406-7.17-14.406-7.17L517.36,732.7s-2.521-10.755-4.682-10.755a5.062,5.062,0,0,1-3.241-.978Z" transform="translate(-206.369 -330.684)"/><path class="b" d="M363.711,352.9a19.069,19.069,0,0,1,15.317-2.421l.628.175c12.107,3.376,18.546,16.028,14.382,28.258h0l-4.057-1.131.882-4.7-2.5,4.245-24.061-6.71-.716-4.38-.8,3.959-4.734-1.32q-8.384,13.966-.62,32.436l-8.063-2.249-1.431-8.76-1.592,7.917-15.371-4.286,2.957-18.406A33.665,33.665,0,0,1,363.711,352.9Z" transform="translate(-163.227 -199.559)"/><rect class="g" width="183.657" height="311.058" transform="translate(299.86 34.275)"/><path class="a" d="M743.522,463.439H514.844V117.459H743.522Zm-227.249-1.293h225.82V118.752H516.273Z" transform="translate(-215.698 -117.459)"/><rect class="a" width="688.543" height="1.449" transform="translate(31.457 428.653)"/><path class="a" d="M726.782,320.024H553.844V176.459H726.782Zm-171.509-1.293H725.353V177.752H555.273Z" transform="translate(-226.828 -138.304)"/><path class="a" d="M458.911,168.314l-1.01-.914,53.9-48.775,31.646,28.638,85.606-77.469,1.01.914-86.617,78.383L511.8,120.453Z" transform="translate(-130.676 -24.659)"/><ellipse class="d" cx="10.719" cy="9.7" rx="10.719" ry="9.7" transform="translate(370.607 85.363)"/><ellipse class="d" cx="10.719" cy="9.7" rx="10.719" ry="9.7" transform="translate(402.765 111.878)"/><ellipse class="d" cx="10.719" cy="9.7" rx="10.719" ry="9.7" transform="translate(488.519 35.568)"/><rect class="a" width="130.061" height="11.64" transform="translate(348.454 221.815)"/><path class="a" d="M596.636,461.322H536.608V407h40.733v1.293h-39.3v51.735h57.169V434.161h1.429Z" transform="translate(-153.138 -143.797)"/><path class="d" d="M573.1,444.917l-12.7-15.32,4.574-3.1,8.742,10.547,40.189-36.369,4.042,3.658Z" transform="translate(-159.93 -141.561)"/><path class="b" d="M333.314,544.435s-12.974-15.654-39.461-6.359l-4.865,12.229s-28.109,20.056-12.433,50.875l-1.081,45.983L271.15,660.37l-78.382-5.87-2.7,22.5,14.055.978s79.463,28.372,91.9,10.762,38.38-87.073,38.38-87.073l67.3,9.12s-1.97,19.061.192,21.507,1.081,12.719,2.162,14.675.18,7.043.18,7.043l22.331-.667v-9.784s2.7-13.208,2.7-16.632,16.217-48.429-11.892-52.342-76.494-11.077-76.494-11.077Z" transform="translate(-123.013 -265.025)"/><path class="e" d="M344.429,427.081a12.855,12.855,0,0,0-7.723-6.908,14.683,14.683,0,0,0-10.842.537c-4.465,2.039-8.6,6.088-8.343,14.1.541,17.121,1.622,54.3,1.622,54.3L342.927,548.3s-5.946,39.623,9.73,35.71,4.865-37.178,4.865-37.178l-18.379-56.255,4.324-44.515S348.108,435.826,344.429,427.081Z" transform="translate(-159.383 -224.132)"/></g></svg>