<svg xmlns="http://www.w3.org/2000/svg" xmlns:xlink="http://www.w3.org/1999/xlink" width="691" height="455" viewBox="0 0 691 455"><defs><style>.a{opacity:0.2;}.b{fill:#3f3d56;}.c,.e{fill:#2699fb;}.d,.e,.r{opacity:0.1;}.f{fill:url(#a);}.g{fill:#a1616a;}.h{fill:#46455b;}.i{fill:#bbbdc8;}.j{fill:url(#b);}.k{fill:#99d55c;}.l{fill:#f6987e;}.m{fill:#fc4a4a;}.n{fill:#fda8a8;}.o{fill:#eeeff3;}.p{fill:#f75842;}.q{fill:#ffd566;}</style><linearGradient id="a" x1="0.5" y1="1" x2="0.5" gradientUnits="objectBoundingBox"><stop offset="0" stop-color="gray" stop-opacity="0.251"/><stop offset="0.54" stop-color="gray" stop-opacity="0.122"/><stop offset="1" stop-color="gray" stop-opacity="0.102"/></linearGradient><linearGradient id="b" x1="0.5" y1="1" x2="0.5" y2="0" xlink:href="#a"/></defs><g transform="translate(0 -0.001)"><g class="a" transform="translate(114.419 58.499)"><path class="b" d="M433.152,740.753a26.467,26.467,0,0,0,1.382,4.1q13.34-5.151,26.975-9.874c-.077-.371-.154-.761-.25-1.145a23.092,23.092,0,0,0-5.669-10.591c-3.634-3.774-8.318-5.6-12.873-4.484s-7.863,4.925-9.374,9.937A23.128,23.128,0,0,0,433.152,740.753Z" transform="translate(-307.923 -380.121)"/><path class="b" d="M14.216-.149C22.209-.12,28.721,8.44,28.76,18.97s-6.41,19.042-14.4,19.013S-.149,29.394-.188,18.865,6.222-.178,14.216-.149Z" transform="translate(115.715 319.188) rotate(-12.59)"/><path class="b" d="M14.216-.149C22.209-.12,28.721,8.44,28.76,18.97s-6.41,19.042-14.4,19.013S-.149,29.394-.188,18.865,6.222-.178,14.216-.149Z" transform="translate(110.236 296.536) rotate(-12.59)"/><path class="b" d="M14.216-.149C22.209-.12,28.721,8.44,28.76,18.97s-6.41,19.042-14.4,19.013S-.149,29.394-.188,18.865,6.222-.178,14.216-.149Z" transform="translate(104.746 273.899) rotate(-12.59)"/><path class="b" d="M14.216-.149C22.209-.12,28.721,8.44,28.76,18.97s-6.41,19.042-14.4,19.013S-.149,29.394-.188,18.865,6.222-.178,14.216-.149Z" transform="translate(99.256 251.255) rotate(-12.59)"/><path class="c" d="M370.216,279.209a69.409,69.409,0,0,0,3.366-9.044l-38.39,2.969,40.015-9.516a70.3,70.3,0,0,0-11.734-54.031L316.637,250.75l40.546-48.723a68.886,68.886,0,0,0-66.472-19.5c-37.18,9.138-59.965,46.9-50.892,84.339a69.51,69.51,0,0,0,24.563,38.365,70.293,70.293,0,0,0-4.69,14.239l54.014,13.3-55.294-4.711A70.046,70.046,0,0,0,284.7,389.064a69.712,69.712,0,0,0,79.5,96.7c37.18-9.132,59.965-46.893,50.892-84.333a69.573,69.573,0,0,0-24.569-38.365,70.179,70.179,0,0,0-20.3-83.855Z" transform="translate(-237.827 -180.514)"/><path class="d" d="M272.69,449.137A69.573,69.573,0,0,0,297.259,487.5a69.712,69.712,0,0,0,79.5,96.7c37.18-9.132,59.965-46.893,50.892-84.333A69.573,69.573,0,0,0,403.08,461.5C409.312,447.753,270.847,441.546,272.69,449.137Z" transform="translate(-250.377 -278.976)"/></g><g class="a" transform="translate(367.87 0.001)"><path class="b" d="M703.078,731.512a28.889,28.889,0,0,0-.275,4.943q16.732.264,33.591,1.107c.077-.434.154-.874.218-1.321a25.793,25.793,0,0,0-1.568-13.667c-2.316-5.547-6.635-9.516-12.042-10.283s-10.679,1.849-14.486,6.516A26.021,26.021,0,0,0,703.078,731.512Z" transform="translate(-658.744 -319.293)"/><path class="b" d="M21.649-.143C33.692-.114,43.474,7.493,43.5,16.847S33.774,33.76,21.73,33.73-.094,26.094-.117,16.74,9.606-.173,21.649-.143Z" transform="translate(45.27 407.306) rotate(-81.82)"/><path class="b" d="M21.649-.143C33.692-.114,43.474,7.493,43.5,16.847S33.774,33.76,21.73,33.73-.094,26.094-.117,16.74,9.606-.173,21.649-.143Z" transform="translate(49.125 380.932) rotate(-81.82)"/><path class="b" d="M21.649-.143C33.692-.114,43.474,7.493,43.5,16.847S33.774,33.76,21.73,33.73-.094,26.094-.117,16.74,9.606-.173,21.649-.143Z" transform="translate(52.979 354.565) rotate(-81.82)"/><path class="b" d="M21.649-.143C33.692-.114,43.474,7.493,43.5,16.847S33.774,33.76,21.73,33.73-.094,26.094-.117,16.74,9.606-.173,21.649-.143Z" transform="translate(56.84 328.192) rotate(-81.82)"/><path class="c" d="M799.634,225a79.306,79.306,0,0,0,7.563-8.176l-43.016-13.283,47.6,7.075a78.782,78.782,0,0,0,10.679-62.34l-68.692,23.547,65.186-34.277a81.777,81.777,0,0,0-143.594-13.368,78.611,78.611,0,0,0-1.98,82.99,80.279,80.279,0,0,0-11.242,13.1l52.92,37.283-58.039-28.73A78.62,78.62,0,0,0,659.1,304.8a78.78,78.78,0,0,0-6.986,108.023c26.687,32.288,74.139,38.992,109,15.4a78.929,78.929,0,0,0,24.246-105.585A78.779,78.779,0,0,0,799.634,225Z" transform="translate(-633.95 -87.501)"/><path class="d" d="M649.05,351.039A78.3,78.3,0,0,0,659.1,402.284a78.78,78.78,0,0,0-6.986,108.023c26.688,32.288,74.139,38.992,109,15.4a78.929,78.929,0,0,0,24.246-105.585C798.092,408.2,650.349,342.177,649.05,351.039Z" transform="translate(-633.95 -184.989)"/></g><ellipse class="e" cx="345.5" cy="19" rx="345.5" ry="19" transform="translate(0 417.001)"/><ellipse class="c" cx="16.188" cy="3.063" rx="16.188" ry="3.063" transform="translate(556.268 422.496)"/><ellipse class="b" cx="1.887" cy="2.428" rx="1.887" ry="2.428" transform="translate(570.299 421.836)"/><ellipse class="b" cx="1.887" cy="2.428" rx="1.887" ry="2.428" transform="translate(570.299 418.867)"/><ellipse class="b" cx="1.887" cy="2.428" rx="1.887" ry="2.428" transform="translate(570.299 415.905)"/><ellipse class="b" cx="1.887" cy="2.428" rx="1.887" ry="2.428" transform="translate(570.299 412.943)"/><ellipse class="b" cx="1.887" cy="2.428" rx="1.887" ry="2.428" transform="translate(570.299 409.974)"/><ellipse class="b" cx="1.887" cy="2.428" rx="1.887" ry="2.428" transform="translate(570.299 407.012)"/><ellipse class="b" cx="1.887" cy="2.428" rx="1.887" ry="2.428" transform="translate(570.299 404.05)"/><path class="c" d="M955.209,693.053a8.547,8.547,0,0,0,.7-1.019l-4.952-.8,5.355.038a8.766,8.766,0,0,0,.173-7.031l-7.185,3.667,6.629-4.792a9.106,9.106,0,0,0-16.063.743,8.758,8.758,0,0,0,1.149,9.194,9.055,9.055,0,0,0-1.03,1.616l6.4,3.283-6.852-2.264a8.742,8.742,0,0,0,1.484,8.34,8.766,8.766,0,0,0,.97,12.005,9.143,9.143,0,0,0,12.252,0,8.766,8.766,0,0,0,.97-12.005,8.749,8.749,0,0,0,0-10.969Z" transform="translate(-375.972 -306.859)"/><path class="d" d="M939.093,710.193a8.74,8.74,0,0,0,1.919,5.484,8.766,8.766,0,0,0,.97,12.005,9.143,9.143,0,0,0,12.252,0,8.766,8.766,0,0,0,.97-12.005C956.426,714.168,939.093,709.2,939.093,710.193Z" transform="translate(-375.979 -318.514)"/><ellipse class="c" cx="21.626" cy="4.088" rx="21.626" ry="4.088" transform="translate(179.088 445.081)"/><ellipse class="b" cx="2.521" cy="3.239" rx="2.521" ry="3.239" transform="translate(197.829 444.194)"/><ellipse class="b" cx="2.521" cy="3.239" rx="2.521" ry="3.239" transform="translate(197.829 440.232)"/><ellipse class="b" cx="2.521" cy="3.239" rx="2.521" ry="3.239" transform="translate(197.829 436.27)"/><ellipse class="b" cx="2.521" cy="3.239" rx="2.521" ry="3.239" transform="translate(197.829 432.314)"/><ellipse class="b" cx="2.521" cy="3.239" rx="2.521" ry="3.239" transform="translate(197.829 428.352)"/><ellipse class="b" cx="2.521" cy="3.239" rx="2.521" ry="3.239" transform="translate(197.829 424.389)"/><ellipse class="b" cx="2.521" cy="3.239" rx="2.521" ry="3.239" transform="translate(197.829 420.433)"/><path class="c" d="M374.728,706.771a12.512,12.512,0,0,0,.934-1.359l-6.609-1.069,7.153.057a11.664,11.664,0,0,0,.23-9.4l-9.6,4.893,8.849-6.365a12.157,12.157,0,0,0-21.382,1.043,11.69,11.69,0,0,0,1.457,12.228,12.1,12.1,0,0,0-1.376,2.163l8.593,4.4-9.162-3.019a11.718,11.718,0,0,0,1.919,11.132,11.711,11.711,0,0,0,1.3,16.036,12.215,12.215,0,0,0,16.365,0,11.711,11.711,0,0,0,1.3-16.036,11.709,11.709,0,0,0,0-14.66Z" transform="translate(-164.948 -310.199)"/><path class="d" d="M353.189,729.6a11.714,11.714,0,0,0,2.559,7.333,11.711,11.711,0,0,0,1.3,16.036,12.215,12.215,0,0,0,16.365,0,11.711,11.711,0,0,0,1.3-16.036C376.344,734.912,353.189,728.271,353.189,729.6Z" transform="translate(-164.951 -325.699)"/><path class="f" d="M473.331,417.466c-1.632-8.39-3.455-16.8-3.756-25.333-.179-5.031.179-10.151-.48-15.17-.326-2.465-.9-4.887-1.459-7.308l-2.265-9.692a15.913,15.913,0,0,0-.218-5.579,19.245,19.245,0,0,0-.9-2.837,43.792,43.792,0,0,0,5.189-9.434,9.272,9.272,0,0,0,.883-4.711c-.461-3.063-3.481-5.082-6.29-6.591a13.96,13.96,0,0,0-5.439-1.937,8.9,8.9,0,0,0-7.166,3.145,15.053,15.053,0,0,1,.461-7.44c-1.67-.736-3.353-1.428-5.048-2.1a44.785,44.785,0,0,1-.256-6.547c.038-2.623.083-5.27.237-7.9a23.359,23.359,0,0,0,15.6-21.78v-.8a18.632,18.632,0,0,0,1.651-14.516c-1.875-6.289-6.776-11.472-12.681-14.673s-12.752-4.553-19.528-4.792a28.572,28.572,0,0,0-6.795.421,33.148,33.148,0,0,0-6.923,2.516c-3.385,1.535-6.795,3.214-9.329,5.862-4.4,4.61-5.381,11.384-4.9,17.61.64,8.176,3.417,16.088,6.629,23.7a28.953,28.953,0,0,0,3.967,7.214,4.256,4.256,0,0,0,5.611.6,59.361,59.361,0,0,0-.141,6.038,15.714,15.714,0,0,0-9.649,2.365c-1.28.9-2.5,2.315-2.214,3.837a3.606,3.606,0,0,1,3.493,3.05,6.509,6.509,0,0,1-1.209,3.774c-.288.516-.576,1.038-.87,1.553-2.751,2.893-5.573,6.516-5.822,10.107a13.049,13.049,0,0,0-1.337.195c-2.5.453-4.978,1.289-7.428,1.918l-17.736,4.591-4.383,1.195-7.038,1.824c-4.479,1.157-9.041,2.346-13.014,4.673s-7.345,5.981-8.145,10.384c-.4,2.189-.154,4.465-.64,6.635a1.116,1.116,0,0,1-.064.289,21.018,21.018,0,0,1-1.631,3.969c-3.973,8.233-6.8,17.208-6.27,26.27.326,5.566,1.919,10.994,3.468,16.352q2.438,8.22,4.811,16.44a85.315,85.315,0,0,0,3.961,11.509,44.411,44.411,0,0,0,11.856,15.579,20.959,20.959,0,0,0,4.735,3.145,17.485,17.485,0,0,0,8.318,1.327c.768-.05,1.523-.132,2.271-.252,5.5-.855,10.621-3.459,15.324-6.39q2.95-1.836,5.759-3.868a35.367,35.367,0,0,0,1.28,6.239,11.009,11.009,0,0,1,.761,4.3c-.23,2.025-1.728,3.685-2.5,5.585-1.644,4.013.045,8.484.32,12.786.262,4.031-.736,8.031-1.536,12a123.25,123.25,0,0,0-2.361,20.075,59.708,59.708,0,0,1-.512,7.635c-.6,3.572-1.99,7.019-2.233,10.629-.371,5.623,2.1,11.126,1.875,16.755-.262,6.61-4.21,13.031-2.834,19.5a2.483,2.483,0,0,0,1.395,1.956l-.371.333c-1.132,1.032-2.233,2.937-.947,3.774a2.544,2.544,0,0,0,.966.327c1.99.409,3.993.78,6,1.126a17.943,17.943,0,0,0,.691,5.384c.365.258.736.491,1.107.711a1.435,1.435,0,0,0,.4,1.887,2.545,2.545,0,0,0,.966.327,212.409,212.409,0,0,0,50.131,4.088c3.007-.113,6.149-.327,8.714-1.836s4.3-4.723,3.078-7.371c-1.081-2.34-3.909-3.352-6.449-4.132l-2.982-.906a4.956,4.956,0,0,0,.269-4.4c-1.081-2.34-3.909-3.352-6.449-4.132l-6.865-2.094a6.789,6.789,0,0,1-2.5-1.151,13.4,13.4,0,0,1-1.356-1.547,7.7,7.7,0,0,0-3.743-2.308,28.14,28.14,0,0,1,.1-4.289l1.92-22.773c.429-5.157.851-10.415-.371-15.453-.493-2.044-1.28-4.138-.8-6.189.749-3.346,4.332-5.208,6.776-7.692,3.685-3.774,4.831-9.138,5.675-14.245a282.753,282.753,0,0,0,3.276-63.78,105.3,105.3,0,0,1,23.558-3.723,2.423,2.423,0,0,0,2.444-1.931A7.636,7.636,0,0,0,473.331,417.466Zm-38.294,1.113c.045-.22.1-.44.134-.66l.531.667Z" transform="translate(-158.753 -148.327)"/><path class="g" d="M468.954,328.177c-.166,2.189-.953,4.289-1.241,6.472-.326,2.4-.038,4.849-.2,7.27s-.87,4.969-2.745,6.547a131.266,131.266,0,0,1,31.94,6.792c-3.116-3.774-3.2-9.044-3.122-13.887.1-7.163.23-14.465,2.611-21.226a53.447,53.447,0,0,0-21.588-.277c-1.548.3-6.238.113-6.936,1.535C467.169,322.448,469.07,326.593,468.954,328.177Z" transform="translate(-205.147 -173.366)"/><path class="d" d="M468.954,328.177c-.166,2.189-.953,4.289-1.241,6.472-.326,2.4-.038,4.849-.2,7.27s-.87,4.969-2.745,6.547a131.266,131.266,0,0,1,31.94,6.792c-3.116-3.774-3.2-9.044-3.122-13.887.1-7.163.23-14.465,2.611-21.226a53.447,53.447,0,0,0-21.588-.277c-1.548.3-6.238.113-6.936,1.535C467.169,322.448,469.07,326.593,468.954,328.177Z" transform="translate(-205.147 -173.366)"/><path class="h" d="M465.959,746.362a13.108,13.108,0,0,0,1.28,1.579,6.488,6.488,0,0,0,2.438,1.151l6.705,2.094c2.489.78,5.253,1.786,6.309,4.126,1.19,2.641-.505,5.855-3.014,7.358s-5.579,1.723-8.516,1.836a203.724,203.724,0,0,1-49-4.082,2.588,2.588,0,0,1-.941-.327c-1.28-.849-.186-2.748.921-3.774,4.319-4.025,9.015-8.245,14.9-9.176,3.09-.5,6.193-.3,9.265-1.019,2.207-.522,4.293-1.421,6.494-1.956C456.892,743.186,463.028,742.833,465.959,746.362Z" transform="translate(-189.252 -330.922)"/><path class="d" d="M465.959,746.362a13.108,13.108,0,0,0,1.28,1.579,6.488,6.488,0,0,0,2.438,1.151l6.705,2.094c2.489.78,5.253,1.786,6.309,4.126,1.19,2.641-.505,5.855-3.014,7.358s-5.579,1.723-8.516,1.836a203.724,203.724,0,0,1-49-4.082,2.588,2.588,0,0,1-.941-.327c-1.28-.849-.186-2.748.921-3.774,4.319-4.025,9.015-8.245,14.9-9.176,3.09-.5,6.193-.3,9.265-1.019,2.207-.522,4.293-1.421,6.494-1.956C456.892,743.186,463.028,742.833,465.959,746.362Z" transform="translate(-189.252 -330.922)"/><path class="i" d="M432.43,518.907a39.334,39.334,0,0,0-.576,26.736c-2.233-.239-3.2,2.73-3.142,4.943a36.051,36.051,0,0,0,1.414,9.107,11.241,11.241,0,0,1,.749,4.289c-.23,2.025-1.689,3.686-2.451,5.579-1.6,4.006.045,8.472.32,12.767.256,4.031-.723,8.025-1.51,11.987a125.743,125.743,0,0,0-2.3,20.044,59.456,59.456,0,0,1-.506,7.629c-.576,3.572-1.919,7.013-2.175,10.616-.365,5.61,2.047,11.113,1.83,16.736-.256,6.6-4.12,13.013-2.77,19.5.192.912.71,1.987,1.664,2,9.649.119,18.664-2.516,28.21-1.138.973-21.711,1.92-43.522,6.27-64.836,3.839-18.975,10.346-37.736,9.738-57.082-.352-11.063-3.026-21.912-4.652-32.868A44.666,44.666,0,0,0,432.43,518.907Z" transform="translate(-189.39 -245.719)"/><path class="d" d="M432.43,518.907a39.334,39.334,0,0,0-.576,26.736c-2.233-.239-3.2,2.73-3.142,4.943a36.051,36.051,0,0,0,1.414,9.107,11.241,11.241,0,0,1,.749,4.289c-.23,2.025-1.689,3.686-2.451,5.579-1.6,4.006.045,8.472.32,12.767.256,4.031-.723,8.025-1.51,11.987a125.743,125.743,0,0,0-2.3,20.044,59.456,59.456,0,0,1-.506,7.629c-.576,3.572-1.919,7.013-2.175,10.616-.365,5.61,2.047,11.113,1.83,16.736-.256,6.6-4.12,13.013-2.77,19.5.192.912.71,1.987,1.664,2,9.649.119,18.664-2.516,28.21-1.138.973-21.711,1.92-43.522,6.27-64.836,3.839-18.975,10.346-37.736,9.738-57.082-.352-11.063-3.026-21.912-4.652-32.868A44.666,44.666,0,0,0,432.43,518.907Z" transform="translate(-189.39 -245.719)"/><path class="h" d="M479.959,761.362a13.1,13.1,0,0,0,1.28,1.579,6.485,6.485,0,0,0,2.438,1.151l6.705,2.094c2.489.78,5.253,1.786,6.309,4.126,1.19,2.641-.505,5.855-3.014,7.358s-5.579,1.723-8.516,1.837a203.72,203.72,0,0,1-49-4.082,2.588,2.588,0,0,1-.941-.327c-1.28-.849-.186-2.748.921-3.774,4.319-4.025,9.015-8.245,14.9-9.176,3.09-.5,6.194-.3,9.265-1.019,2.207-.522,4.293-1.421,6.494-1.956C470.892,758.186,477.028,757.833,479.959,761.362Z" transform="translate(-194.294 -336.488)"/><path class="i" d="M439.81,520.315c-2.47,3.144-3.2,7.3-2.866,11.233s1.683,7.717,3.007,11.446c-1.76,1.591-1.395,4.333-1.164,6.673.838,8.692-2.233,17.365-1.785,26.082.186,3.667,1,7.283,1.19,10.95a69.172,69.172,0,0,1-.793,11.994,703.487,703.487,0,0,0-5.119,76.786,24.406,24.406,0,0,0,.64,7.032c4.652,3.365,10.493,3.818,16.124,2.56s10.768-4.063,15.817-6.83a48.939,48.939,0,0,0,7.832-4.969,4.112,4.112,0,0,0,1.574-2.126c.537-2.516-3.02-3.654-5.061-5.283-2.969-2.371-2.924-6.761-2.617-10.509l1.855-22.742c.422-5.151.832-10.4-.358-15.434-.486-2.038-1.235-4.132-.787-6.182.729-3.333,4.236-5.195,6.622-7.679,3.609-3.774,4.722-9.126,5.554-14.22A288.974,288.974,0,0,0,481.956,516c-4.7,1.6-10.276.73-15.234,1.107s-9.885,2.006-14.908,2.138C447.629,519.34,442.383,517.069,439.81,520.315Z" transform="translate(-193.444 -246.503)"/><ellipse class="g" cx="24" cy="23.5" rx="24" ry="23.5" transform="translate(256 115.001)"/><path class="h" d="M485.613,362.95A128.916,128.916,0,0,0,462,354.937c-5.72-1.34-12.253-2.145-17.032,1.22-1.28.9-2.438,2.314-2.163,3.836a3.535,3.535,0,0,1,3.41,3.044,6.6,6.6,0,0,1-1.177,3.774l-5.522,10.063a39.032,39.032,0,0,0-2.719,5.66,38.332,38.332,0,0,0-1.593,9.987l-.64,9.132a107.476,107.476,0,0,0-.269,17.277c.4,4.333,1.318,8.686.691,12.994-.505,3.465-2,6.717-2.834,10.126-1.574,6.415-.857,13.447-3.909,19.333a6.018,6.018,0,0,1,3.961-.352c9.265,1.679,16.552,8.868,25.548,11.616,2.271-3.258,5.349-5.66,7.889-8.692a16.672,16.672,0,0,0,3.628-7.887c1.92,2.516,3.551,4.478,4.7,7.4a4.945,4.945,0,0,0,1.024,1.843c1.209,1.157,3.2.711,4.818.226a100.87,100.87,0,0,1,24.422-4.069,2.383,2.383,0,0,0,2.393-1.931,7.652,7.652,0,0,0-.064-3.874c-1.593-8.384-3.372-16.78-3.666-25.3-.179-5.031.173-10.132-.473-15.151-.32-2.459-.877-4.88-1.427-7.3l-4.568-19.956c-.256-1.113-1.472-1.843-1.99-2.868-2.1-4.176-6.11-7.195-8.183-11.384A14.69,14.69,0,0,1,485.613,362.95Z" transform="translate(-191.989 -186.308)"/><path class="b" d="M458.224,296.308a1.521,1.521,0,0,1,.224-.931,2.143,2.143,0,0,1,.921-.56,4.755,4.755,0,0,0,2.707-5.1l2.239-.459.07-7.667c3.327-1.811,7.863-.44,10.992-2.572,1.759-1.208,2.662-3.258,3.737-5.082s2.674-3.66,4.812-3.811a13.266,13.266,0,0,0,.736,11.4,13.124,13.124,0,0,0,5.394-4.956l1.113,6.289a1.549,1.549,0,0,0,.473,1.025c.582.421,1.369-.107,1.881-.629l2.9-2.8a38.684,38.684,0,0,1,2.489,9.365c4.76-4.541,6.238-11.836,4.408-18.1s-6.622-11.453-12.394-14.654-12.464-4.547-19.086-4.786a27.6,27.6,0,0,0-6.641.421,31.868,31.868,0,0,0-6.769,2.516c-3.308,1.528-6.648,3.208-9.118,5.849-4.3,4.6-5.266,11.371-4.792,17.61.64,8.176,3.34,16.069,6.482,23.667a29.024,29.024,0,0,0,3.877,7.207c2.591,3.226,8.958.547,8.145-5.83C462.459,299.17,458.224,300.925,458.224,296.308Z" transform="translate(-197.813 -148.629)"/><path class="c" d="M429.887,473.14a99.25,99.25,0,0,1-35.479,39.371c-4.6,2.924-9.6,5.528-14.978,6.384-.736.12-1.472.2-2.22.252a16.828,16.828,0,0,1-8.107-1.352,20.486,20.486,0,0,1-4.632-3.145A44.271,44.271,0,0,1,352.883,499.1a86.536,86.536,0,0,1-3.871-11.5q-2.355-8.214-4.7-16.434c-1.529-5.358-3.071-10.78-3.391-16.352-.518-9.05,2.246-18.013,6.13-26.233a21.418,21.418,0,0,0,1.593-3.962,1.686,1.686,0,0,1,.064-.289c.461-2.17.224-4.44.64-6.629.781-4.4,4.082-8.05,7.96-10.371s8.318-3.509,12.726-4.667l6.865-1.818,4.261-1.126,17.333-4.585c2.4-.629,4.824-1.465,7.262-1.887,2.719-.5,2.7-.239,2.911,2.377.39,4.742.262,9.4,1.28,14.1.966,4.484,2.668,8.805,3.948,13.208,3.231,11.113,3.769,22.811,6.315,34.1.582,2.572,1.388,5.315,3.493,6.918,2.412,1.887,6.475,2.352,7.115,5.308A6.689,6.689,0,0,1,429.887,473.14Z" transform="translate(-160.519 -200.876)"/><path class="d" d="M379.43,537.331c-.736.119-1.472.2-2.22.252a16.828,16.828,0,0,1-8.107-1.327,20.49,20.49,0,0,1-4.632-3.145,44.271,44.271,0,0,1-11.587-15.553,86.542,86.542,0,0,1-3.871-11.5q-2.355-8.214-4.7-16.434c-1.529-5.359-3.071-10.78-3.391-16.352-.518-9.05,2.246-18.013,6.13-26.233a21.417,21.417,0,0,0,1.593-3.962,1.686,1.686,0,0,1,.064-.289c10.442,1.805,22.97,21.44,29.432,47.17C382.9,509.2,383.109,526.916,379.43,537.331Z" transform="translate(-160.519 -219.337)"/><path class="d" d="M418.556,455.124l-1.747.3c-1.8-4.642-3.589-9.289-5.695-13.805-1.094-2.358-2.278-4.686-3.2-7.12-3.455-9.346-2.866-20.434-9.271-28.132a9.706,9.706,0,0,0-1.555-1.547l4.261-1.126a56.26,56.26,0,0,1,7.768,18.937c.691,3.283,1.081,6.641,2.207,9.8a67.216,67.216,0,0,0,3.282,7.006C417.04,444.331,418.87,449.684,418.556,455.124Z" transform="translate(-180.77 -204.829)"/><path class="c" d="M452.543,369.694a21.406,21.406,0,0,1,16.834-5.031,32.542,32.542,0,0,1,9.9,3.774c6.123,3.195,12.157,6.874,16.572,12.126a48.441,48.441,0,0,1,6.539,10.818,25.936,25.936,0,0,1,1.919,5.289c1.561,7.107-2.271,14.17-5.963,20.472l-7.1,12.113c-3.263,5.566-6.552,11.17-10.8,16.057-1.958,2.252-4.108,4.333-6.251,6.415l-9.412,9.132a1.408,1.408,0,0,1-.64.421,1.433,1.433,0,0,1-1.107-.434l-3.11-2.434a52.678,52.678,0,0,0,7.947-6.623,105.242,105.242,0,0,0,10.743-13.641l10.352-14.755c3.026-4.321,6.187-9.075,5.848-14.308a21.72,21.72,0,0,0-2.124-7.189q-2.668-6.157-5.8-12.119a61.466,61.466,0,0,0-8.273-12.629,26.943,26.943,0,0,0-12.541-8.283,10.614,10.614,0,0,0-4.543-.428c-3.366.547-5.758,3.39-7.889,6.031l-6.488,8.176c-1.478,1.855-2.834,4.006-2.924.484C444.085,378.1,449.254,372.927,452.543,369.694Z" transform="translate(-197.75 -190.26)"/><path class="g" d="M457.651,428.787c1.28,4.843,3.167,10.34,7.908,12.176,3.359,1.3,7.294.245,10.2-1.887s4.965-5.138,6.859-8.176a79.3,79.3,0,0,1,5.291-7.887c3.794-4.679,8.958-8.39,11.517-13.836.755-1.623,1.28-3.358,2.137-4.918a30.781,30.781,0,0,1,3.1-4.069,43.926,43.926,0,0,0,6.98-11.912,9.434,9.434,0,0,0,.864-4.7c-.454-3.063-3.4-5.075-6.149-6.579a13.4,13.4,0,0,0-5.317-1.937,8.66,8.66,0,0,0-7.217,3.415,13.5,13.5,0,0,0-2.636,7.654c-.192,3.352.474,6.836-.64,10.006a15.661,15.661,0,0,1-2.412,4.1,48.605,48.605,0,0,1-13.123,11.906,22.061,22.061,0,0,0-1.555-6.937c-.486-1.22-10.02,0-11.261.2-2.457.352-7.217.629-8.766,2.931s.371,6.17,1,8.491Z" transform="translate(-200.849 -194.196)"/><path class="h" d="M455.139,374.71a33.427,33.427,0,0,0-3.941,3.774,21.382,21.382,0,0,0-4.588,12.1,51.139,51.139,0,0,0,1.011,13.044q1.036,5.8,2.45,11.516c.262-2.874,2.63-5.252,5.375-6.289a17.46,17.46,0,0,1,8.682-.5,43,43,0,0,1,10.916,3.1l1.35-18.6a31.855,31.855,0,0,0-.045-7.547,16.636,16.636,0,0,0-7.9-11.289C463.323,370.949,459.746,370.754,455.139,374.71Z" transform="translate(-198.568 -192.968)"/><path class="j" d="M747.1,419.46a43.368,43.368,0,0,0-4.415-14.5c-1.414-2.767-3.135-5.415-4.024-8.377-.723-2.409-.864-4.943-1.44-7.39s-1.593-4.786-2.412-7.176c-5.79-16.981-1.44-35.56-3.308-53.358-.7-6.566-2.745-13.767-8.535-17.189-3.442-2.031-7.576-2.346-11.626-2.516l-1.849-.082-2.969-.145a49.994,49.994,0,0,0-12.8.522c-5.119,1.1-11.184,4.641-12.8,9.78-.883-.447-1.772-.843-2.591-1.214a47.068,47.068,0,0,0-10.295-3.145,38.877,38.877,0,0,0,8.74-3.321c6.4-3.66,7.883-14.352,9.188-21.5s.115-14.541-2.054-21.491A36.6,36.6,0,0,0,681,261.241a25.215,25.215,0,0,0-16.028-12.068,25.634,25.634,0,0,0-19.9,3.326c-5.97,3.843-11.517,9.434-16.073,14.836-.64.742-3.314,3.371-2.425,4.478.5.629,2.143.126,3.871-.629a22.741,22.741,0,0,0-2.009,9.371A23.271,23.271,0,0,0,640.1,300.63l.64,5.786v.044c.07,1.931.1,3.862.128,5.786,0,1.352,0,2.736-.038,4.12a28.86,28.86,0,0,1-9.546,6.981,15.53,15.53,0,0,0,8.663-1.384A12.066,12.066,0,0,1,637.7,326.2c.768-.264,1.536-.5,2.3-.755a16.359,16.359,0,0,0-1.069,1.975,15.1,15.1,0,0,0-1.03,3.358,46.953,46.953,0,0,0-4.216,7.409h0c-.537,1.176-1.017,2.371-1.453,3.585v.082q-.64,1.811-1.132,3.673h0q-.23.893-.422,1.792v.132q-.384,1.821-.64,3.667v.252c-.07.572-.134,1.151-.179,1.73v.088c-.051.629-.09,1.226-.109,1.843v2.17c0,1.182.077,2.371.192,3.56a1.477,1.477,0,0,0,.045.44c.051.484.109.969.179,1.459a.842.842,0,0,0,.045.333c.083.585.179,1.163.288,1.742a2.045,2.045,0,0,0,.083.384c.089.465.185.925.294,1.39l.115.478c.141.579.288,1.151.454,1.73.1.327.192.629.294.975a24.137,24.137,0,0,1,.64,3.629l-3.5.113q-11.235.315-22.452,1c-.934-3.541-4.12-5.585-8.132-6.069a16.323,16.323,0,0,0-1.92-.113h0a10.543,10.543,0,0,0,1.83-1.956,8.6,8.6,0,0,0,1.459-3.145,8.714,8.714,0,0,0-2.649,2.283c-.237.314-.448.629-.64.918v-1.887a.293.293,0,0,0-.088-.215.3.3,0,0,0-.219-.086h-.64a.3.3,0,0,0-.219.086.293.293,0,0,0-.088.215v3.843h-.346c-.422.038-.832.088-1.235.163-4.357.8-7.55,3.547-7.55,8.176a9.993,9.993,0,0,0,3.609,7.66,21.735,21.735,0,0,0,.992,4.239c.441,1.365,1.017,2.849,2.31,3.528a5.359,5.359,0,0,0,2.521.453c7.115,0,13.846-3.226,20.929-3.774,4.377-.346,8.772.321,13.161.189.64,0,1.28-.063,1.919-.113-6,29.214-13.264,58.8-9.47,88.308.25,1.962.64,4.088,2.131,5.421,1.977,1.774,5.023,1.484,7.678,1.258a65.25,65.25,0,0,1,21.722,1.7,6.709,6.709,0,0,0,3.059.107,5.774,5.774,0,0,0,.64-.182l.179-.069c.134-.05.262-.1.384-.157l.186-.094.314-.189c.051-.038.109-.069.154-.107a2.486,2.486,0,0,0,.313-.252l.09-.075a4.511,4.511,0,0,0,.339-.365l.077-.113a3.06,3.06,0,0,0,.2-.3c.032-.05.064-.1.09-.151s.1-.189.147-.283a1.187,1.187,0,0,0,.07-.17c.019-.057.083-.208.121-.314s0-.1.051-.157a1.776,1.776,0,0,0,.121-.472v-.1a2.952,2.952,0,0,1,.07-.4.717.717,0,0,0,0-.208v-1.6h0a15.832,15.832,0,0,0-.122-1.667,10.289,10.289,0,0,0,1.395.3h0a7.939,7.939,0,0,0,1.331.094h.064a2.773,2.773,0,0,0,.64-.05h0a5.327,5.327,0,0,0,.55-.113h.083a3,3,0,0,0,.486-.189l.077-.044a2.6,2.6,0,0,0,.378-.252l.058-.044a2.2,2.2,0,0,0,.32-.365l.058-.094a2.116,2.116,0,0,0,.224-.484c.365-1.214-.467-2.585.864-3.7,1.28,4.031,2.559,8.069,2.77,12.239.07,1.522,0,3.145.909,4.4a18.6,18.6,0,0,0,1.92,1.925c1.958,2.082,2,5.22,1.868,8.038-.058,1.138-.122,2.277-.2,3.415a166.379,166.379,0,0,1-9.341,44.535,23.788,23.788,0,0,1-1.958,4.4,21.446,21.446,0,0,1-4.805,5.2,60.944,60.944,0,0,1-8.542,5.968,26.181,26.181,0,0,0-4.344,2.837c-.051-.145-.109-.283-.147-.434-.07-.289-.166-.629-.454-.736a.884.884,0,0,0-.64.1c-3,1.3-6,2.591-8.887,4.107a10.352,10.352,0,0,0-3.75,2.849,3.812,3.812,0,0,0-.243,4.4c.838,1.1,2.342,1.465,3.73,1.711,1.779.308,3.564.528,5.349.692a8.038,8.038,0,0,0-2.361,2.063,3.812,3.812,0,0,0-.243,4.4c.838,1.1,2.342,1.465,3.73,1.711,11.344,1.969,22.976.629,34.493.3,3.743-.119,7.569-.145,11.114-1.34a5.631,5.631,0,0,0,1.92-.987c1.612-1.4,1.452-3.849,1.171-5.931l-1.171-8.5a2.312,2.312,0,0,0-.505.094,123.854,123.854,0,0,1,5.253-23.522c3.9-11.918,9.713-23.66,9.636-36.132v-.906c-.109-3.906-.819-7.767-1.28-11.654a166.912,166.912,0,0,1-.595-19.6,41.436,41.436,0,0,1,.544-7.654,1.242,1.242,0,0,1,.057-.258l10.628-.277a7.6,7.6,0,0,0,3.429-.629,2.2,2.2,0,0,0,1.241-2.7c4.53,2.019,10.589-.73,11.926-5.409a9.322,9.322,0,0,0,.224-1,.306.306,0,0,1,0-.076c.045-.314.077-.629.09-.937v-.157h0a17.261,17.261,0,0,0-1-6.352c-2.175-6.057-5.63-11.572-8.881-17.151-1.676-2.887-3.3-5.811-4.882-8.748l1.388,1.755a6,6,0,0,0,1.875,1.767c2.591,1.314,5.3-1.333,7.94-2.553,3.5-1.623,7.595-.667,11.459-.4s8.523-.711,9.9-4.233a9.131,9.131,0,0,0,.25-4.44Zm-66.625-94.522c0,1.346.09,2.711.2,4.082a38.208,38.208,0,0,0-4.479-5.849Z" transform="translate(-248.81 -147.222)"/><path class="k" d="M602.145,434.92a8.708,8.708,0,0,1,2.617-2.27,8.558,8.558,0,0,1-1.44,3.145c-1.113,1.491-2.284,2.516-2.61,2.27S601.019,436.411,602.145,434.92Z" transform="translate(-254.078 -215.575)"/><path class="d" d="M602.588,435.442a6.418,6.418,0,0,1,1.919-1.692,6.4,6.4,0,0,1-1.069,2.327c-.832,1.107-1.7,1.887-1.919,1.692S601.756,436.549,602.588,435.442Z" transform="translate(-254.38 -215.983)"/><path class="l" d="M541.419,346.77h.64a.3.3,0,0,1,.307.3V354.2H541.15v-7.126A.3.3,0,0,1,541.419,346.77Z" transform="translate(-194.906 -128.676)"/><path class="m" d="M606.474,449.134a10.239,10.239,0,0,1-20.474,0c0-4.61,3.154-7.34,7.46-8.138a15.3,15.3,0,0,1,2.777-.245,15.956,15.956,0,0,1,1.919.113C602.891,441.442,606.474,444.222,606.474,449.134Z" transform="translate(-248.81 -218.58)"/><path class="d" d="M602.356,440.877c-.186.346-1.19.629-2.406.629a4.3,4.3,0,0,1-2.291-.472,15.3,15.3,0,0,1,2.777-.245,15.968,15.968,0,0,1,1.919.088Z" transform="translate(-253.01 -218.594)"/><path class="d" d="M597.945,458.991a10.151,10.151,0,0,1-10.237-10.063c0-4.528,3.039-7.239,7.224-8.088a14.014,14.014,0,0,0-1.472.189c-4.306.8-7.46,3.528-7.46,8.138a10.251,10.251,0,0,0,12.534,9.805C598.336,458.985,598.157,458.991,597.945,458.991Z" transform="translate(-248.81 -218.614)"/><path class="n" d="M674.547,694.1c1.414,1.258,3.577,1.227,5.5,1.088l8.746-.629c6.949-.5,14.134-1.069,20.263-4.321a4.811,4.811,0,0,0,1.683-1.258,5.255,5.255,0,0,0,.736-2.711,123.664,123.664,0,0,1,5.618-27.415c3.839-11.855,9.6-23.541,9.521-35.95V622c-.109-3.887-.806-7.729-1.235-11.6a166.615,166.615,0,0,1-.589-19.5,41.593,41.593,0,0,1,.538-7.616c.4-2.044,1.919-4.094.992-5.893-1.8-3.491-8.318-4.774-11.824-4.9-4.722-.164-9.367,1.05-13.929,2.258a9.037,9.037,0,0,0-3.89,1.729c-1.408,1.3-1.811,3.327-1.862,5.22-.243,8.4,4.677,16.208,5.067,24.591.07,1.509,0,3.145.9,4.4a18.384,18.384,0,0,0,1.92,1.918c1.919,2.069,1.977,5.189,1.843,7.994-.058,1.132-.122,2.264-.2,3.4a166.59,166.59,0,0,1-9.233,44.308,23.95,23.95,0,0,1-1.92,4.4,21.465,21.465,0,0,1-4.747,5.17A60.681,60.681,0,0,1,680,683.828c-1.99,1.157-4.114,2.264-5.477,4.1S672.858,692.551,674.547,694.1Z" transform="translate(-280.284 -267.464)"/><path class="d" d="M674.547,694.1c1.414,1.258,3.577,1.227,5.5,1.088l8.746-.629c6.949-.5,14.134-1.069,20.263-4.321a4.811,4.811,0,0,0,1.683-1.258,5.255,5.255,0,0,0,.736-2.711,123.664,123.664,0,0,1,5.618-27.415c3.839-11.855,9.6-23.541,9.521-35.95V622c-.109-3.887-.806-7.729-1.235-11.6a166.615,166.615,0,0,1-.589-19.5,41.593,41.593,0,0,1,.538-7.616c.4-2.044,1.919-4.094.992-5.893-1.8-3.491-8.318-4.774-11.824-4.9-4.722-.164-9.367,1.05-13.929,2.258a9.037,9.037,0,0,0-3.89,1.729c-1.408,1.3-1.811,3.327-1.862,5.22-.243,8.4,4.677,16.208,5.067,24.591.07,1.509,0,3.145.9,4.4a18.384,18.384,0,0,0,1.92,1.918c1.919,2.069,1.977,5.189,1.843,7.994-.058,1.132-.122,2.264-.2,3.4a166.59,166.59,0,0,1-9.233,44.308,23.95,23.95,0,0,1-1.92,4.4,21.465,21.465,0,0,1-4.747,5.17A60.681,60.681,0,0,1,680,683.828c-1.99,1.157-4.114,2.264-5.477,4.1S672.858,692.551,674.547,694.1Z" transform="translate(-280.284 -267.464)"/><path class="o" d="M674.547,723.845c1.414,1.258,3.577,1.226,5.5,1.088l8.746-.629c6.949-.5,14.134-1.069,20.263-4.321a4.812,4.812,0,0,0,1.683-1.258,5.256,5.256,0,0,0,.736-2.711,123.666,123.666,0,0,1,5.618-27.415c3.839-11.855,9.6-23.541,9.521-35.95a186.784,186.784,0,0,1-22.272,1.082,166.591,166.591,0,0,1-9.233,44.308,23.942,23.942,0,0,1-1.92,4.4,21.469,21.469,0,0,1-4.747,5.17A60.672,60.672,0,0,1,680,713.549c-1.99,1.157-4.114,2.264-5.477,4.1S672.858,722.3,674.547,723.845Z" transform="translate(-280.284 -297.21)"/><path class="d" d="M674.547,723.845c1.414,1.258,3.577,1.226,5.5,1.088l8.746-.629c6.949-.5,14.134-1.069,20.263-4.321a4.812,4.812,0,0,0,1.683-1.258,5.256,5.256,0,0,0,.736-2.711,123.666,123.666,0,0,1,5.618-27.415c3.839-11.855,9.6-23.541,9.521-35.95a186.784,186.784,0,0,1-22.272,1.082,166.591,166.591,0,0,1-9.233,44.308,23.942,23.942,0,0,1-1.92,4.4,21.469,21.469,0,0,1-4.747,5.17A60.672,60.672,0,0,1,680,713.549c-1.99,1.157-4.114,2.264-5.477,4.1S672.858,722.3,674.547,723.845Z" transform="translate(-280.284 -297.21)"/><path class="i" d="M686.985,756.135a33.206,33.206,0,0,0,6.027-2.83l9.642-5.346a8.247,8.247,0,0,1,2.86-1.138l1.152,8.459c.288,2.075.441,4.516-1.152,5.906a5.639,5.639,0,0,1-1.92.981c-3.5,1.189-7.275,1.214-10.979,1.327-11.376.359-22.867,1.667-34.077-.3a5.755,5.755,0,0,1-3.679-1.7,3.787,3.787,0,0,1,.237-4.359,10.264,10.264,0,0,1,3.7-2.836c2.854-1.509,5.816-2.793,8.778-4.082a.871.871,0,0,1,.608-.1c.288.094.378.44.454.73a7.629,7.629,0,0,0,4.133,4.667C672.8,755.518,682.724,757.468,686.985,756.135Z" transform="translate(-273.399 -332.154)"/><path class="d" d="M686.985,756.135a33.206,33.206,0,0,0,6.027-2.83l9.642-5.346a8.247,8.247,0,0,1,2.86-1.138l1.152,8.459c.288,2.075.441,4.516-1.152,5.906a5.639,5.639,0,0,1-1.92.981c-3.5,1.189-7.275,1.214-10.979,1.327-11.376.359-22.867,1.667-34.077-.3a5.755,5.755,0,0,1-3.679-1.7,3.787,3.787,0,0,1,.237-4.359,10.264,10.264,0,0,1,3.7-2.836c2.854-1.509,5.816-2.793,8.778-4.082a.871.871,0,0,1,.608-.1c.288.094.378.44.454.73a7.629,7.629,0,0,0,4.133,4.667C672.8,755.518,682.724,757.468,686.985,756.135Z" transform="translate(-273.399 -332.154)"/><path class="n" d="M684.547,708.1c1.414,1.258,3.577,1.226,5.5,1.088l8.746-.629c6.949-.5,14.134-1.069,20.263-4.321a4.81,4.81,0,0,0,1.683-1.258,5.259,5.259,0,0,0,.736-2.711,123.645,123.645,0,0,1,5.618-27.415c3.839-11.855,9.6-23.541,9.521-35.95V636c-.109-3.887-.806-7.73-1.235-11.6a166.613,166.613,0,0,1-.589-19.5,41.6,41.6,0,0,1,.538-7.616c.4-2.044,1.919-4.094.992-5.893-1.8-3.491-8.318-4.774-11.824-4.9-4.722-.163-9.367,1.05-13.929,2.258a9.038,9.038,0,0,0-3.89,1.73c-1.408,1.3-1.811,3.327-1.862,5.22-.243,8.4,4.677,16.208,5.068,24.591.07,1.509,0,3.145.9,4.4a18.376,18.376,0,0,0,1.919,1.918c1.919,2.069,1.977,5.189,1.843,7.994-.058,1.132-.122,2.264-.2,3.4a166.591,166.591,0,0,1-9.233,44.308,23.944,23.944,0,0,1-1.919,4.4,21.466,21.466,0,0,1-4.747,5.17A60.677,60.677,0,0,1,690,697.828c-1.99,1.157-4.114,2.264-5.477,4.1S682.858,706.551,684.547,708.1Z" transform="translate(-283.886 -272.659)"/><path class="o" d="M684.547,737.845c1.414,1.258,3.577,1.226,5.5,1.088l8.746-.629c6.949-.5,14.134-1.069,20.263-4.321a4.81,4.81,0,0,0,1.683-1.258,5.259,5.259,0,0,0,.736-2.71A123.647,123.647,0,0,1,727.09,702.6c3.839-11.855,9.6-23.541,9.521-35.95a186.788,186.788,0,0,1-22.273,1.082,166.591,166.591,0,0,1-9.233,44.308,23.948,23.948,0,0,1-1.919,4.4,21.463,21.463,0,0,1-4.748,5.17A60.651,60.651,0,0,1,690,727.549c-1.99,1.157-4.114,2.264-5.477,4.1S682.858,736.3,684.547,737.845Z" transform="translate(-283.886 -302.405)"/><path class="i" d="M696.985,770.135a33.214,33.214,0,0,0,6.027-2.83l9.642-5.346a8.249,8.249,0,0,1,2.86-1.138l1.152,8.459c.288,2.075.442,4.516-1.152,5.906a5.642,5.642,0,0,1-1.919.981c-3.5,1.189-7.275,1.214-10.979,1.327-11.376.359-22.867,1.667-34.077-.3a5.755,5.755,0,0,1-3.679-1.7,3.787,3.787,0,0,1,.237-4.358,10.265,10.265,0,0,1,3.7-2.837c2.854-1.509,5.816-2.792,8.779-4.082a.87.87,0,0,1,.608-.1c.288.094.378.44.454.729a7.629,7.629,0,0,0,4.133,4.667C682.8,769.518,692.724,771.468,696.985,770.135Z" transform="translate(-277.001 -337.349)"/><path class="n" d="M665.81,352.776c3.116-3.774,3.2-9.044,3.122-13.887,0-1.887-.058-3.837-.128-5.755v-.044a63.82,63.82,0,0,0-1.133-10.5h0a37.654,37.654,0,0,0-1.344-4.906c.422-.094.845-.182,1.28-.258a53.32,53.32,0,0,1,20.314,0c1.158.226,4.089.176,5.758.736a1.919,1.919,0,0,1,1.158.8c.326.673-.346,2.623-.832,4.352h0a8.373,8.373,0,0,0-.448,2.415,16.318,16.318,0,0,0,.358,2.3c.3,1.39.7,2.767.883,4.176.326,2.4.038,4.849.2,7.271s.87,4.969,2.745,6.547A131.263,131.263,0,0,0,665.81,352.776Z" transform="translate(-277.555 -172.455)"/><path class="d" d="M697.486,327.752c-.851.069-1.7.151-2.559.245a130.863,130.863,0,0,0-25.107,5.157v-.044l-1.132-10.5h0v-1.918c0-1.075-.032-2.164-.057-3.245a53.32,53.32,0,0,1,20.314,0c1.158.226,4.089.176,5.758.736,0,1.025,0,2.05.038,3.075a13.492,13.492,0,0,0,.288,2.075h0A7.862,7.862,0,0,0,697.486,327.752Z" transform="translate(-278.571 -172.463)"/><ellipse class="n" cx="23.674" cy="23.27" rx="23.674" ry="23.27" transform="translate(379.099 111.635)"/><path class="p" d="M650.208,411.683a44.99,44.99,0,0,1,9.674-41.874c2.233-2.572,4.479-5.214,7.409-6.755,3.487-1.824,7.614-1.887,11.562-1.925,3.487,0,7.083,0,10.288,1.365,4.332,1.818,7.32,5.767,9.841,9.686,2.687,4.176,5.119,8.7,5.528,13.629.218,2.925-.307,5.893.134,8.805.563,3.692,2.655,7,3.513,10.635.467,1.962.563,3.994.864,5.994a55.321,55.321,0,0,0,1.971,8.075,287.182,287.182,0,0,0,25.952,59.572c3.2,5.553,6.622,11.044,8.772,17.063.972,2.723,1.676,5.66.883,8.465-1.324,4.654-7.307,7.39-11.779,5.384a2.2,2.2,0,0,1-1.228,2.679,7.443,7.443,0,0,1-3.391.629l-39.516,1.031a14.483,14.483,0,0,0-3.078.409c-4.645,1.17-2.9,3.145-3.4,4.792-.608,2.013-3.545,1.849-5.592,1.258.313,2.937.384,6.528-3.474,7.384a6.628,6.628,0,0,1-3.02-.1,64.03,64.03,0,0,0-21.46-1.7c-2.636.239-5.65.528-7.6-1.258-1.472-1.327-1.855-3.44-2.105-5.39-3.935-30.818,4.159-61.679,10.237-92.126a35.96,35.96,0,0,0-.7-14.773Z" transform="translate(-268.23 -189.036)"/><path class="c" d="M735.772,384.95c.928,2.629,2.086,5.214,2.4,7.981.249,2.214-.051,4.453.083,6.673a33.7,33.7,0,0,0,1.542,7.252,113.323,113.323,0,0,0,4.549,13.478c.857,1.981,1.849,4.164,1.158,6.208s-2.834,3.308-3.449,5.34c-.64,2.145.64,4.4,2.271,5.969s3.673,2.679,5.183,4.346c1.644,1.818,2.559,4.138,3.717,6.289a58.184,58.184,0,0,0,5.637,8.082l7.736,9.868a5.993,5.993,0,0,0,1.855,1.761c2.559,1.308,5.24-1.327,7.844-2.516,3.455-1.616,7.5-.667,11.319-.4s8.42-.7,9.783-4.214a9.106,9.106,0,0,0,.275-4.4,43.3,43.3,0,0,0-4.364-14.421c-1.395-2.755-3.1-5.39-3.973-8.34-.717-2.4-.857-4.918-1.427-7.352s-1.574-4.761-2.38-7.138c-5.72-16.893-1.42-35.377-3.269-53.088-.685-6.535-2.713-13.7-8.433-17.1-3.4-2.019-7.48-2.333-11.517-2.516l-1.824-.082-2.937-.145a48.868,48.868,0,0,0-12.649.522c-5.822,1.258-12.829,5.7-13.059,12.094A73.327,73.327,0,0,0,735.772,384.95Z" transform="translate(-301.328 -183.541)"/><path class="d" d="M772.09,346.54a71.291,71.291,0,0,1,1.171,12.969c.115,12.415,1.478,24.78,2.847,37.107l.9,8.176a8.546,8.546,0,0,0,1.28,4.308c.915,1.214,2.834,1.849,4.044.912a29.775,29.775,0,0,0,.448-8.893q-.48-9.491-.953-18.987c-.307-6.163-.64-12.333-1.4-18.459a120.276,120.276,0,0,0-2.636-14.094,16.444,16.444,0,0,0-.915-2.811l-1.824-.082Z" transform="translate(-315.834 -183.622)"/><path class="c" d="M691.933,354.728c-3.922-.553-8.03-.836-11.754.5-3.557,1.289-6.4,3.937-8.958,6.723a23.368,23.368,0,0,0-4.274,6.094c-2.182,4.931-1.331,10.616,0,15.836,3.628,14.377,10.832,28.245,22.394,37.736a83.475,83.475,0,0,0,11.2,7.547,76.883,76.883,0,0,0,16.066,7.365,10,10,0,0,0,4.882.541,3.814,3.814,0,0,0,3.2-3.258c-9.278-5.126-17.6-11.748-25.856-18.34a53.125,53.125,0,0,1-6.341-5.66c-2.93-3.239-5-7.151-7.838-10.465-2.559-2.975-5.758-5.484-7.678-8.887a23.426,23.426,0,0,1-2.387-7.409c-.947-5.264-1.126-10.855,1-15.78s6.993-8.969,12.432-8.88c2.79.044,5.445,1.132,8.017,2.195l16.188,6.717c-.2-.088.928-2.849.876-3.233-.154-1.2-.371-1.22-1.279-2.132a20.854,20.854,0,0,0-5.919-3.478A51.322,51.322,0,0,0,691.933,354.728Z" transform="translate(-277.484 -186.489)"/><path class="q" d="M653.5,278.735a27.574,27.574,0,0,0,12.406-6.289L662.517,289.9a87.836,87.836,0,0,0,9.789-5.182c.454,7.987-.2,16.157-3.2,23.591s-8.516,14.088-15.925,17.39c6.577,1.082,12.483-3.56,18.338-6.7,4.082-2.182,11.056.063,15.522-1.258,3.788-1.094,7.678-2.05,11.095-4.006,6.347-3.642,7.787-14.277,9.073-21.384s.115-14.465-2.022-21.384a37.257,37.257,0,0,0-2.873-7.082,24.808,24.808,0,0,0-15.813-12,25.224,25.224,0,0,0-19.692,3.309c-5.9,3.818-11.37,9.434-15.874,14.761-.64.736-3.282,3.352-2.406,4.453,1.068,1.333,7.339-2.465,8.4-2.981C656.625,272.571,654.718,278.439,653.5,278.735Z" transform="translate(-271.268 -148.232)"/><g class="r" transform="translate(371.703 192.233)"><path d="M677.089,534.835a6.63,6.63,0,0,1-3.02-.1,64.027,64.027,0,0,0-21.46-1.7c-2.636.239-5.65.528-7.6-1.258-1.472-1.327-1.856-3.44-2.105-5.39-3.935-30.818,4.159-61.679,10.237-92.126a35.961,35.961,0,0,0-.7-14.773l-.288-.975a43.833,43.833,0,0,1,.4-25.365,44.193,44.193,0,0,0-2.335,30.415l.288.975a35.98,35.98,0,0,1,.7,14.774c-6.059,30.446-14.153,61.327-10.237,92.126.25,1.95.64,4.063,2.105,5.39,1.919,1.767,4.965,1.478,7.6,1.258a64.026,64.026,0,0,1,21.46,1.7,6.628,6.628,0,0,0,3.02.1c3.148-.7,3.679-3.22,3.6-5.717A5.06,5.06,0,0,1,677.089,534.835Z" transform="translate(-639.941 -393.15)"/><path d="M759.32,588.036a2.2,2.2,0,0,1-1.228,2.679,7.444,7.444,0,0,1-3.391.629l-39.516,1.031a14.492,14.492,0,0,0-3.078.409c-4.645,1.17-2.9,3.145-3.4,4.792-.608,2.013-3.545,1.849-5.592,1.258.192,1.792.288,3.824-.537,5.333,1.8.264,3.73.031,4.21-1.56s-1.248-3.623,3.4-4.792a14.485,14.485,0,0,1,3.078-.409l39.49-1.032a7.441,7.441,0,0,0,3.391-.629,2.2,2.2,0,0,0,1.228-2.679c4.479,2.006,10.455-.73,11.779-5.384a8.9,8.9,0,0,0,.333-2.164A8.967,8.967,0,0,1,759.32,588.036Z" transform="translate(-662.502 -464.533)"/></g><path class="n" d="M666.283,380.56a215.494,215.494,0,0,1,9,21.805c2.1,5.981,3.948,12.264,3.25,18.553s-4.479,12.642-10.621,14.623a28.533,28.533,0,0,1-8.151.912,175.6,175.6,0,0,0-19.649,1.56,87.972,87.972,0,0,1-9.156,1c-4.338.138-8.676-.528-13-.182-7,.56-13.648,3.774-20.673,3.774a5.327,5.327,0,0,1-2.5-.453c-1.28-.679-1.849-2.151-2.284-3.509-.979-3.069-1.747-6.591-.09-9.365,2.041-3.415,6.68-4.1,10.7-4.4q13.59-.943,27.212-1.321c7.748-.214,16.143-.5,22.151-5.321a3.122,3.122,0,0,0,.966-1.094,3.434,3.434,0,0,0-.077-2.245,96.213,96.213,0,0,1-3.033-28.019,4.1,4.1,0,0,1,.64-2.4,4.028,4.028,0,0,1,2.028-1.157,30.187,30.187,0,0,1,16.559-.453" transform="translate(-250.771 -196.246)"/><path class="p" d="M681.912,380.366a4.8,4.8,0,0,0-2.316,1.679c.256-2.623-.09-5.27-.038-7.912s.55-5.4,2.246-7.447c2.156-2.616,5.822-3.553,9.252-3.642,4.978-.132,10.129,1.289,13.776,4.623a13.761,13.761,0,0,1,4.319,8.176c.115.862.5,4.094-.416,4.648-.8.491-3.839-1.2-4.818-1.472A32.845,32.845,0,0,0,681.912,380.366Z" transform="translate(-282.505 -189.743)"/><ellipse class="e" cx="4.5" cy="4" rx="4.5" ry="4" transform="translate(298 33.001)"/><ellipse class="e" cx="4.5" cy="4" rx="4.5" ry="4" transform="translate(328 119.001)"/><circle class="e" cx="4.5" cy="4.5" r="4.5" transform="translate(243 38.001)"/><circle class="e" cx="11.5" cy="11.5" r="11.5" transform="translate(99 231.001)"/><circle class="e" cx="5" cy="5" r="5" transform="translate(569 58.001)"/><ellipse class="e" cx="14.5" cy="14" rx="14.5" ry="14" transform="translate(564 108.001)"/><ellipse class="e" cx="4.5" cy="5" rx="4.5" ry="5" transform="translate(598 77.001)"/><circle class="e" cx="4" cy="4" r="4" transform="translate(558 158.001)"/><ellipse class="e" cx="4.5" cy="4" rx="4.5" ry="4" transform="translate(289 69.001)"/><ellipse class="e" cx="4.5" cy="5" rx="4.5" ry="5" transform="translate(122 291.001)"/><circle class="e" cx="4.5" cy="4.5" r="4.5" transform="translate(115 190.001)"/><ellipse class="e" cx="5" cy="4" rx="5" ry="4" transform="translate(360 30.001)"/><ellipse class="e" cx="4.5" cy="4" rx="4.5" ry="4" transform="translate(375 69.001)"/></g></svg>