<svg xmlns="http://www.w3.org/2000/svg" width="904.747" height="627" viewBox="0 0 904.747 627"><defs><style>.a{fill:#f2f2f2;}.b{fill:#2f2e41;}.c{fill:#3f3d56;}.d,.f{fill:#f9a826;}.e{opacity:0.1;}.f{opacity:0.4;}.g{fill:#575a89;}.h{fill:#ffb9b9;}</style></defs><g transform="translate(0 0.001)"><path class="a" d="M1025.871,332.71V460.631H295.5V369.5a355.6,355.6,0,0,1,71.35-135.116l509.773-77.921A384.155,384.155,0,0,1,920.5,188.207L618.311,297.595l334.546-78.908a367.958,367.958,0,0,1,37.281,46.55l-68.276,48.443,77.143-34.647a357.545,357.545,0,0,1,19.315,36.109Q1022.329,323.816,1025.871,332.71Z" transform="translate(-121.124 -97.272)"/><path class="a" d="M842.191,124.839a399.182,399.182,0,0,0-168.049-36.7c-118.515,0-224.475,51-294.853,131.123C499.8,194.206,709.633,150.828,842.191,124.839Z" transform="translate(-128.417 -88.141)"/><path class="b" d="M1025.871,361.595V583.076H301.124a10.623,10.623,0,0,1-5.624-9.263V389.947c0-27.807,23.752-50.339,53.046-50.329h654.166c12.789,0,23.158,9.838,23.16,21.976Z" transform="translate(-121.124 -121.749)"/><path class="c" d="M1011.658,607.387c0-8.8-4.708-15.941-10.515-15.941-3.65,0-6.865,2.82-8.75,7.1a5.52,5.52,0,0,0-2.009-.383,6.414,6.414,0,0,0-4.708,2.3c-1.7-5.337-5.3-9.02-9.474-9.02-3.9,0-7.3,3.222-9.117,8a5.928,5.928,0,0,0-3.6-1.284c-4.457,0-8.069,5.477-8.069,12.234a17.028,17.028,0,0,0,1.271,6.587h52.85a21.691,21.691,0,0,0,2.121-9.6Z" transform="translate(-178.561 -155.403)"/><path class="c" d="M425.159,601.253c0-12.6-4.708-22.816-10.515-22.816-3.65,0-6.865,4.037-8.75,10.164a4.1,4.1,0,0,0-2.009-.548c-1.758,0-3.383,1.223-4.708,3.294-1.7-7.639-5.3-12.91-9.474-12.91-3.9,0-7.3,4.611-9.117,11.454a4.96,4.96,0,0,0-3.6-1.838c-4.457,0-8.069,7.84-8.069,17.51a33.731,33.731,0,0,0,1.271,9.429h52.85a42.533,42.533,0,0,0,2.121-13.739Z" transform="translate(-127.514 -153.665)"/><path class="c" d="M360.442,444.613h5.393a9.045,9.045,0,0,1,9.245,8.773v55.564c0,8.479,7.244,15.353,16.179,15.353h0c8.935,0,16.179-6.874,16.179-15.353V374.427a9.045,9.045,0,0,1,9.245-8.773h5.393a9.045,9.045,0,0,1,9.245,8.773V508.951c0,8.479,7.244,15.353,16.179,15.353h0c8.935,0,16.179-6.874,16.179-15.353V427.067a9.045,9.045,0,0,1,9.245-8.773h5.393a9.045,9.045,0,0,1,9.245,8.773v81.884c0,8.479,7.244,15.353,16.179,15.353h0c8.935,0,16.179-6.874,16.179-15.353V484.093a9.045,9.045,0,0,1,9.245-8.773h5.393a9.045,9.045,0,0,1,9.245,8.773v24.858c0,8.479,7.244,15.353,16.179,15.353h0c8.935,0,16.179-6.874,16.179-15.353v-87a9.045,9.045,0,0,1,9.245-8.773H590.8a9.045,9.045,0,0,1,9.245,8.774v87c0,8.479,7.244,15.353,16.179,15.353h0c8.935,0,16.179-6.874,16.179-15.353v-110.4a9.045,9.045,0,0,1,9.245-8.773h5.393a9.045,9.045,0,0,1,9.245,8.773v110.4c0,8.479,7.244,15.353,16.179,15.353h0c8.935,0,16.179-6.874,16.179-15.353V453.387a9.045,9.045,0,0,1,9.245-8.774h5.393a9.045,9.045,0,0,1,9.245,8.773v55.564c0,8.479,7.244,15.353,16.179,15.353h0c8.935,0,16.179-6.874,16.179-15.353V427.067a9.045,9.045,0,0,1,9.245-8.773h5.393a9.045,9.045,0,0,1,9.245,8.773v81.884c0,8.479,7.244,15.353,16.179,15.353h7.222a17.157,17.157,0,0,0,11.718-4.769,9.452,9.452,0,0,1,6.484-2.542h5.393a9.451,9.451,0,0,1,6.484,2.542A17.157,17.157,0,0,0,833.97,524.3h7.222c8.935,0,16.179-6.874,16.179-15.353v-8.042a9.045,9.045,0,0,1,9.245-8.773h5.393a9.045,9.045,0,0,1,9.245,8.773v8.042c0,8.479,7.244,15.353,16.179,15.353h0c8.936,0,16.179-6.874,16.179-15.353v-87a9.045,9.045,0,0,1,9.246-8.773h5.393a9.045,9.045,0,0,1,9.245,8.773v87c0,8.479,7.244,15.353,16.179,15.353h0c8.935,0,16.179-6.874,16.179-15.353V453.387a9.045,9.045,0,0,1,9.245-8.773h5.393a9.44,9.44,0,0,1,6.934,3V362.859c0-17.03-14.548-30.836-32.495-30.836H379.217c-15.475,0-28.021,11.9-28.021,26.59v94.773a9.045,9.045,0,0,1,9.246-8.774Z" transform="translate(-125.972 -120.734)"/><rect class="b" width="4.526" height="169.656" transform="translate(681.937 227.697)"/><path class="d" d="M893.728,359.382c.254,51.857-33.321,95.278-41.773,105.381-1.225,1.455-1.918,2.223-1.918,2.223s-.963-1.038-2.6-3c-8.852-10.55-37.466-47.858-41.627-93.735-.031-.322-.062-.643-.085-.965q-.393-4.7-.424-9.526a127.15,127.15,0,0,1,2.126-23.512c.069-.431.154-.855.231-1.287,9.091-47.412,41.334-82.805,41.334-82.805a180.118,180.118,0,0,1,18.159,24.536c.139.219.277.439.408.658A197.242,197.242,0,0,1,878.7,297.8c.123.241.231.483.339.724C887.087,315.8,893.62,336.762,893.728,359.382Z" transform="translate(-165.495 -110.061)"/><rect class="b" width="4.526" height="169.656" transform="translate(403.811 195.529)"/><path class="d" d="M589.087,322.247c.288,59.324-43.695,107.61-43.695,107.61s-44.45-47.9-44.738-107.222,43.7-107.61,43.7-107.61S588.8,262.923,589.087,322.247Z" transform="translate(-138.98 -105.098)"/><path class="e" d="M463.024,389.255a2.906,2.906,0,0,1-4.332.977c-1.461-.869-2.21-2.235-.961-4.126s5.485-2.723,5.485-2.723S464.274,387.364,463.024,389.255Z" transform="translate(-135.189 -127.598)"/><path class="e" d="M787.075,415.415a2.906,2.906,0,0,1-4.332.977c-1.461-.869-2.21-2.235-.961-4.126s5.485-2.723,5.485-2.723S788.324,413.524,787.075,415.415Z" transform="translate(-163.393 -131.094)"/><path class="e" d="M609.482,402.26c.526,2.176-.654,3.232-2.335,3.6s-3.228-.1-3.754-2.273,1.85-5.606,1.85-5.606S608.956,400.084,609.482,402.26Z" transform="translate(-147.915 -129.548)"/><path class="e" d="M898.934,493.4c.526,2.176-.654,3.232-2.335,3.6s-3.228-.1-3.754-2.273,1.85-5.606,1.85-5.606S898.409,491.223,898.934,493.4Z" transform="translate(-173.108 -141.728)"/><path class="e" d="M584.644,442.575c.9,3.739-1.123,5.555-4.013,6.184s-5.548-.167-6.451-3.906,3.179-9.635,3.179-9.635S583.74,438.836,584.644,442.575Z" transform="translate(-145.368 -134.525)"/><path class="e" d="M707.611,463.759c-1.895,3.389-4.679,3.5-7.3,2.185s-4.08-3.571-2.186-6.96,9.047-5.313,9.047-5.313S709.505,460.37,707.611,463.759Z" transform="translate(-156.092 -136.991)"/><path class="e" d="M830.421,508.524c-.527,3.8-3.093,4.835-6.033,4.468s-5.138-1.992-4.612-5.8,6.519-7.979,6.519-7.979S830.948,504.72,830.421,508.524Z" transform="translate(-166.748 -143.078)"/><path class="c" d="M0,0,106.9,2.8l.02.751L.02.751Z" transform="matrix(0.696, -0.718, 0.718, 0.696, 361.291, 236.6)"/><path class="c" d="M0,0,106.9,2.8l.02.751L.02.751Z" transform="matrix(0.696, -0.718, 0.718, 0.696, 368.996, 261.458)"/><path class="c" d="M867.759,281.137l-60.132,58.9c.069-.431.154-.855.231-1.287l59.493-58.269C867.489,280.7,867.628,280.917,867.759,281.137Z" transform="translate(-165.698 -113.845)"/><path class="c" d="M0,0,106.9,2.8l.02.752L.02.752Z" transform="translate(643.3 283.419) rotate(-45.909)"/><path class="c" d="M878.935,305.565,805.7,377.294l-1.086,1.067-.555-.512,1.556-1.521L878.6,304.842C878.72,305.083,878.828,305.324,878.935,305.565Z" transform="translate(-165.387 -117.101)"/><path class="b" d="M541.483,289.4h-9.635v-9.142h9.634Zm-8.893-.7h8.152v-7.736h-8.152Z" transform="translate(-141.695 -113.816)"/><path class="b" d="M855.406,429.485h-9.634v-9.143h9.634Zm-8.893-.7h8.152v-7.736h-8.152Z" transform="translate(-169.018 -132.537)"/><ellipse class="f" cx="11.495" cy="10.908" rx="11.495" ry="10.908" transform="translate(279.278 72.629)"/><ellipse class="f" cx="8.064" cy="7.652" rx="8.064" ry="7.652" transform="translate(261.435 81.095)"/><ellipse class="f" cx="24.074" cy="22.845" rx="24.074" ry="22.845" transform="translate(768.019 32.723)"/><ellipse class="f" cx="16.888" cy="16.026" rx="16.888" ry="16.026" transform="translate(740.859 68.601)"/><path class="b" d="M446.433,555.555l-.732-.014a153.125,153.125,0,0,1,2.6-23.014c3.164-16.276,8.426-26.966,15.638-31.772l.42.568C447.509,512.55,446.441,555.126,446.433,555.555Z" transform="translate(-134.197 -143.283)"/><path class="b" d="M456.451,560.127l-.732-.014c.016-.769.473-18.892,7.991-23.9l.42.568C456.917,541.588,456.455,559.943,456.451,560.127Z" transform="translate(-135.069 -148.022)"/><ellipse class="d" cx="3.659" cy="3.472" rx="3.659" ry="3.472" transform="translate(330.664 351.159)"/><ellipse class="d" cx="3.659" cy="3.472" rx="3.659" ry="3.472" transform="translate(328.853 381.018)"/><path class="b" d="M454.188,502.776a14.7,14.7,0,0,1-1.1,7.9,13.5,13.5,0,0,1-2.49-15.092A15.1,15.1,0,0,1,454.188,502.776Z" transform="translate(-134.511 -142.591)"/><path class="b" d="M466.954,514.794a17.092,17.092,0,0,1-8.385.344,15.262,15.262,0,0,1,15.227-4.956,16.265,16.265,0,0,1-6.842,4.613Z" transform="translate(-135.317 -144.487)"/><path class="b" d="M467.341,545.547a11.98,11.98,0,0,1-5.877.241,10.7,10.7,0,0,1,10.673-3.474A11.4,11.4,0,0,1,467.341,545.547Z" transform="translate(-135.569 -148.798)"/><path class="b" d="M314.06,723.45H0v-1.733H313.147Z" transform="translate(0 -96.45)"/><path class="b" d="M177.737,781.92s-5.51,21.864-.5,22.814,29.551.644,35.561,1.594,18.532-.644,18.532-4.921-13.023-7.129-13.023-7.129-18.532-9.506-19.033-9.981S177.737,781.92,177.737,781.92Z" transform="translate(-110.648 -180.858)"/><path class="g" d="M182.227,632.878s1.5,16.16,1.5,17.586-1.5,23.765,0,24.716-1,7.6-1,9.981-8.014,41.826-6.01,57.036-3.005,13.784-1.5,15.21,1.5,1.426,1.5,4.278,16.028,5.229,16.028,5.229l17.53-105.041L201.26,630.5Z" transform="translate(-110.63 -160.622)"/><path class="e" d="M182.227,632.878s1.5,16.16,1.5,17.586-1.5,23.765,0,24.716-1,7.6-1,9.981-8.014,41.826-6.01,57.036-3.005,13.784-1.5,15.21,1.5,1.426,1.5,4.278,16.028,5.229,16.028,5.229l17.53-105.041L201.26,630.5Z" transform="translate(-110.63 -160.622)"/><path class="b" d="M185.454,789.226s-5.009,17.111,0,18.061,29.551-1.089,35.561-.138,18.532,1.089,18.532-3.189-13.023-7.129-13.023-7.129-18.532-9.506-19.033-9.981S185.454,789.226,185.454,789.226Z" transform="translate(-111.352 -181.51)"/><path class="g" d="M177.756,611.3s-6.01,13.784,1,20.913,15.026,21.388,15.026,22.339-14.024,95.535-12.021,101.714,1.5,9.981,1,10.932,5.009,6.179,11.019,6.179,15.026-4.278,16.028-8.08-1.5-36.6-1-42.777,3.005-15.21,4.007-17.111,6.511-3.8,7.513-9.506,9.016-78.424,6.511-80.8S177.756,611.3,177.756,611.3Z" transform="translate(-110.667 -158.056)"/><ellipse class="h" cx="17.029" cy="16.16" rx="17.029" ry="16.16" transform="translate(88.126 311.605)"/><path class="h" d="M208.159,475.452s3.506,17.586,1,19.487,19.033,4.753,19.033,4.753,2.5-23.29,3.005-25.666S208.159,475.452,208.159,475.452Z" transform="translate(-113.522 -139.607)"/><path class="d" d="M228.31,500.161s-6.01-16.635-30.553-11.882c0,0-4.508,1.426-3.005,2.852s3.005,1.426,1,2.852-4.508,0-3.005,1.426-13.523,9.981-12.522,26.141-3.506,38.974,0,42.777-2.5,20.438-1.5,23.765-6.01,7.6-3.005,9.031,57.1,9.981,58.6,0,.5-2.852,2-5.228,2-6.654,1-11.882-3.506-18.061-2.5-22.814,0-44.678-3.005-49.431S228.31,500.161,228.31,500.161Z" transform="translate(-110.633 -141.502)"/><path class="h" d="M221.607,635.841s-7.513,27.092,2,27.092,9.016-28.043,9.016-28.043Z" transform="translate(-114.447 -161.209)"/><path class="b" d="M224.122,463.011c0,1.378-2.1,2.253-5.364,2.453h-.005a28.749,28.749,0,0,1-4.147-.076c-2.084-.181-2.945,1.678-3.3,4.13-.581,4.045.23,9.715-.706,10.6-1.292,1.226-10.714,0-13.659-2.785a2.55,2.55,0,0,1-.867-1.492,7.829,7.829,0,0,0-2.514-4.435c-1.738-1.8-4.212-3.8-7-6.973-5.009-5.7,0-6.179,1.5-10.457s4.007-5.7,4.007-8.555,11.52-5.228,21.036-4.753,7.513,11.882,7.513,11.882.566,1.378,1.242,3.156a47.72,47.72,0,0,1,2.224,6.854A3.281,3.281,0,0,1,224.122,463.011Z" transform="translate(-111.453 -135.245)"/><path class="g" d="M136.757,355.72v-4.277l-13.523.95-1.849,7.1,3.792,4.568,9.076-5.488Z" transform="translate(-10.565 -46.967)"/><path class="e" d="M136.757,355.72v-4.277l-13.523.95-1.849,7.1,3.792,4.568,9.076-5.488Z" transform="translate(-10.565 -46.967)"/><path class="g" d="M246.533,452.892l-9.016,2.376L228.5,460.5l-3.546,1.93-5.324,2.9h-.005l-7.448,4.054L197.814,477.2a2.55,2.55,0,0,1-.867-1.492,7.829,7.829,0,0,0-2.514-4.435l28.3-15.7L225,454.318l13.523-14.734Z" transform="translate(-112.327 -135.108)"/><path class="e" d="M223.845,510.354s-17.029-.951-18.532,22.814-1,46.1-1,46.579,7.012,45.629,13.523,45.629,11.52-.951,13.022-3.327-4.007-36.6-4.007-36.6-2.5-36.123,1.5-47.53S232.861,511.78,223.845,510.354Z" transform="translate(-113.18 -144.565)"/><path class="d" d="M226.588,507.611s-17.029-.951-18.532,22.814-1,46.1-1,46.579,7.012,45.629,13.523,45.629,11.52-.951,13.023-3.327-4.007-36.6-4.007-36.6-2.5-36.123,1.5-47.53S235.6,509.037,226.588,507.611Z" transform="translate(-113.419 -144.199)"/></g></svg>